<?xml version="1.0" encoding="UTF-8"?>
<svg id="Layer_2" data-name="Layer 2" xmlns="http://www.w3.org/2000/svg" viewBox="0 0 196.63 84.71">
  <defs>
    <style>
      .cls-1 {
        fill: #bbb1ab;
      }

      .cls-2 {
        fill: #83351b;
      }
    </style>
  </defs>
  <g id="Layer_1-2" data-name="Layer 1">
    <g>
      <g>
        <path class="cls-1" d="M1.58,2.75C1.11,1.6.58.87,0,.57v-.19h5.54l7.5,21.68,3.43-9.84-2.9-8.33L15.65.38h1.51l7.5,21.68,3.54-10.18c.96-3.09,1.4-5.59,1.34-7.5-.06-1.91-.62-3.18-1.68-3.81v-.19h5.96l-8.33,24.02.57,1.62h-4.79l-4-11.46-3.39,9.84.56,1.62h-4.79L1.58,2.75Z"/>
        <path class="cls-1" d="M36.65,3.02c0-.63-.07-1.12-.21-1.49-.14-.36-.38-.69-.74-.96v-.19h15.12l.57,5.66h-.19c-.53-1.43-1.45-2.48-2.75-3.15-1.31-.67-3.09-1-5.35-1h-1.92v9.8h3.2c1.21,0,2.14-.13,2.81-.38.67-.25,1.11-.63,1.34-1.13h.19v4.53h-.19c-.23-.5-.67-.88-1.34-1.13-.67-.25-1.6-.38-2.81-.38h-3.2v11.31h2.3c4.17,0,6.87-1.51,8.11-4.53h.19l-.38,6.03h-15.69v-.19c.35-.28.6-.6.74-.96.14-.36.21-.86.21-1.49V3.02Z"/>
        <path class="cls-1" d="M55.16,3.02c0-.63-.07-1.12-.21-1.49-.14-.36-.38-.69-.74-.96v-.19h6.41v.19c-.35.28-.6.6-.74.96-.14.36-.21.86-.21,1.49v21.49h2.3c4.17,0,6.87-1.51,8.11-4.53h.19l-.38,6.03h-15.69v-.19c.35-.28.6-.6.74-.96.14-.36.21-.86.21-1.49V3.02Z"/>
        <path class="cls-1" d="M73.67,3.02c0-.63-.07-1.12-.21-1.49-.14-.36-.38-.69-.74-.96v-.19h6.41v.19c-.35.28-.6.6-.74.96-.14.36-.21.86-.21,1.49v21.49h2.3c4.17,0,6.87-1.51,8.11-4.53h.19l-.38,6.03h-15.69v-.19c.35-.28.6-.6.74-.96.14-.36.21-.86.21-1.49V3.02Z"/>
        <path class="cls-1" d="M91.06,13.2h10.56v1.51h-10.56v-1.51Z"/>
        <path class="cls-1" d="M105.01,3.02c0-.63-.07-1.12-.21-1.49-.14-.36-.38-.69-.74-.96v-.19h8.33c3.09,0,5.44.53,7.05,1.58,1.61,1.06,2.41,2.45,2.41,4.19,0,1.16-.35,2.22-1.06,3.2-.7.98-1.67,1.76-2.9,2.34,3.37,1.06,5.05,3.14,5.05,6.26,0,1.21-.25,2.31-.75,3.3-.5.99-1.21,1.84-2.13,2.55-.92.7-2.03,1.25-3.34,1.64-1.31.39-2.77.58-4.37.58h-8.29v-.19c.35-.28.6-.6.74-.96.14-.36.21-.86.21-1.49V3.02ZM111.76,10.9c.68,0,1.33.02,1.94.06s1.21.11,1.79.21c1.06-.78,1.58-2.01,1.58-3.7s-.58-3.1-1.75-4.09c-1.17-.99-2.81-1.49-4.92-1.49h-.87v9.01h2.22ZM112.4,24.51c1.84,0,3.26-.46,4.28-1.38,1.02-.92,1.53-2.22,1.53-3.9,0-1.03-.19-1.96-.57-2.79-.38-.83-.91-1.55-1.6-2.15-.69-.6-1.53-1.07-2.51-1.39-.98-.33-2.06-.49-3.24-.49h-.75v12.1h2.87Z"/>
        <path class="cls-1" d="M126.16,3.02c0-.63-.07-1.12-.21-1.49-.14-.36-.38-.69-.74-.96v-.19h15.12l.57,5.66h-.19c-.53-1.43-1.45-2.48-2.75-3.15-1.31-.67-3.09-1-5.35-1h-1.92v9.8h3.2c1.21,0,2.14-.13,2.81-.38.67-.25,1.11-.63,1.34-1.13h.19v4.53h-.19c-.23-.5-.67-.88-1.34-1.13-.67-.25-1.6-.38-2.81-.38h-3.2v11.31h2.3c4.17,0,6.87-1.51,8.11-4.53h.19l-.38,6.03h-15.69v-.19c.35-.28.6-.6.74-.96.14-.36.21-.86.21-1.49V3.02Z"/>
        <path class="cls-1" d="M144.67,3.02c0-.63-.07-1.12-.21-1.49-.14-.36-.38-.69-.74-.96v-.19h6.41v.19c-.35.28-.6.6-.74.96-.14.36-.21.86-.21,1.49v20.36c0,.63.07,1.12.21,1.49.14.36.38.69.74.96v.19h-6.41v-.19c.35-.28.6-.6.74-.96.14-.36.21-.86.21-1.49V3.02Z"/>
        <path class="cls-1" d="M155.61,21.38c0,1.23.1,2.2.3,2.9.2.7.54,1.22,1.02,1.55v.19h-4.15v-.19c.48-.33.82-.84,1.02-1.55.2-.7.3-1.67.3-2.9V5.01c0-1.23-.1-2.2-.3-2.9-.2-.7-.54-1.22-1.02-1.55v-.19h5.13l12.03,19.46V5.01c0-1.23-.1-2.2-.3-2.9s-.54-1.22-1.02-1.55v-.19h4.15v.19c-.48.33-.82.84-1.02,1.55s-.3,1.67-.3,2.9v21h-3.02l-12.82-20.78v16.14Z"/>
        <path class="cls-1" d="M194.06,7.16h-.19c-.35-1.78-1.13-3.17-2.32-4.15-1.19-.98-2.67-1.47-4.43-1.47-1.06,0-2.04.19-2.94.57-.9.38-1.69.96-2.36,1.75-.67.79-1.19,1.8-1.57,3.02-.38,1.22-.56,2.67-.56,4.35,0,1.81.22,3.49.66,5.03.44,1.55,1.07,2.88,1.89,4.02.82,1.13,1.78,2.02,2.9,2.66,1.12.64,2.36.96,3.71.96.83,0,1.6-.11,2.3-.34v-7.39c0-.63-.07-1.12-.21-1.49-.14-.36-.38-.68-.74-.96v-.19h6.41v.19c-.35.28-.6.6-.74.96-.14.36-.21.86-.21,1.49v10.22h-.19c-.73-1.13-1.6-1.7-2.6-1.7-.45,0-.91.09-1.38.26-.46.18-.96.37-1.49.58-.53.21-1.11.41-1.75.58-.64.18-1.38.26-2.21.26-1.51,0-2.94-.33-4.28-1-1.34-.67-2.51-1.59-3.51-2.77-.99-1.18-1.79-2.57-2.38-4.17-.59-1.6-.89-3.31-.89-5.15,0-1.94.32-3.71.96-5.33.64-1.62,1.53-3.02,2.68-4.2,1.14-1.18,2.49-2.1,4.05-2.77,1.56-.67,3.24-1,5.05-1,1.13,0,2.3.13,3.51.38,1.21.25,2.29.63,3.24,1.13l-.45,5.66Z"/>
        <path class="cls-1" d="M14.12,31.31c1.19,0,2.35.16,3.48.48,1.13.32,2.15.79,3.05,1.41l-1.62,5.41h-.19c-.28-1.86-.81-3.28-1.59-4.27-.77-.99-1.74-1.49-2.9-1.49-.9,0-1.63.33-2.18.99-.55.66-.83,1.66-.83,3,0,1.24.25,2.55.75,3.92.5,1.38,1.28,2.95,2.34,4.7l2.82-5.06c2.04,0,3.6.45,4.68,1.35,1.08.9,1.62,2.15,1.62,3.75,0,1.19-.31,2.39-.93,3.62-.62,1.22-1.52,2.42-2.71,3.58,1.6,1.52,3.11,2.28,4.52,2.28,1.18,0,1.97-.55,2.36-1.66l.39.08c-.13,1.55-.61,2.76-1.45,3.65-.84.89-1.99,1.33-3.46,1.33-.9,0-1.83-.21-2.78-.62s-1.91-.99-2.86-1.74c-.8.8-1.72,1.39-2.76,1.78-1.04.39-2.18.58-3.42.58s-2.42-.19-3.48-.56c-1.06-.37-1.97-.89-2.75-1.55-.77-.66-1.38-1.42-1.82-2.3-.44-.88-.66-1.8-.66-2.78,0-1.62.56-3.07,1.68-4.35,1.12-1.28,2.67-2.22,4.66-2.84-.98-2.32-1.47-4.33-1.47-6.03,0-.98.17-1.88.52-2.71s.84-1.53,1.49-2.11c.64-.58,1.43-1.03,2.36-1.35.93-.32,1.97-.48,3.13-.48ZM15.63,55.12c-1.44-1.32-2.76-2.85-3.96-4.62-1.2-1.76-2.21-3.54-3.03-5.32-.75.34-1.27.86-1.57,1.57-.3.71-.44,1.59-.44,2.65s.13,1.93.39,2.78c.26.85.63,1.59,1.1,2.2s1.06,1.11,1.74,1.47c.68.36,1.45.54,2.3.54,1.31,0,2.47-.43,3.48-1.28ZM18.95,51.76c.8-.88,1.4-1.69,1.8-2.46.4-.76.6-1.51.6-2.26,0-.9-.28-1.59-.83-2.05-.55-.46-1.36-.7-2.42-.7-1.39,0-2.58.46-3.56,1.39.64,1.08,1.33,2.14,2.05,3.17.72,1.03,1.51,2,2.36,2.9Z"/>
        <path class="cls-1" d="M57.41,56.09c.49,1.19,1.03,1.93,1.62,2.24v.19h-5.68l-3.9-11.21h-7.62c-.85,2.99-1.23,5.42-1.14,7.29.09,1.87.65,3.11,1.68,3.73v.19h-6.11l8.54-24.63-.58-1.66h4.91l8.27,23.85ZM48.91,45.77l-3.25-9.47-3.29,9.47h6.53Z"/>
        <path class="cls-1" d="M61.94,34.94c0-.64-.07-1.15-.21-1.53-.14-.37-.39-.7-.75-.99v-.19h9.32c3.17,0,5.57.55,7.21,1.66,1.64,1.11,2.45,2.74,2.45,4.91,0,1.86-.61,3.45-1.82,4.79-1.21,1.34-2.91,2.33-5.1,2.98l6.15,9.47c.85,1.24,1.59,2,2.2,2.28v.19h-2.01c-1.47,0-2.69-.25-3.67-.75-.98-.5-1.83-1.32-2.55-2.45l-5.14-8c-.15.03-.32.04-.48.04h-.95v8.47c0,.64.07,1.15.21,1.53.14.37.39.7.75.99v.19h-6.57v-.19c.36-.28.61-.61.75-.99.14-.37.21-.88.21-1.53v-20.88ZM66.96,45.81c2.65,0,4.67-.5,6.05-1.49,1.38-.99,2.07-2.46,2.07-4.39,0-.93-.16-1.77-.48-2.53-.32-.76-.79-1.4-1.39-1.93-.61-.53-1.33-.94-2.17-1.24-.84-.3-1.77-.44-2.8-.44h-1.66v12.02h.39Z"/>
        <path class="cls-1" d="M89.85,33.78c-1.86,0-3.36.34-4.52,1.02s-2.02,1.76-2.59,3.23h-.19l.58-5.8h18.09l.58,5.8h-.19c-.57-1.47-1.43-2.55-2.59-3.23s-2.67-1.02-4.52-1.02v22.04c0,.64.07,1.15.21,1.53.14.37.39.7.75.99v.19h-6.57v-.19c.36-.28.61-.61.75-.99.14-.37.21-.88.21-1.53v-22.04Z"/>
        <path class="cls-1" d="M103.73,39.04c0-1.11.21-2.11.62-3,.41-.89,1.01-1.64,1.78-2.26.77-.62,1.71-1.09,2.8-1.43,1.1-.33,2.31-.5,3.65-.5s2.67.17,3.92.5c1.25.34,2.38.81,3.38,1.43l-1.62,5.41h-.19c-.52-1.88-1.28-3.31-2.28-4.29-1.01-.98-2.27-1.47-3.79-1.47-1.31,0-2.36.35-3.13,1.04-.77.7-1.16,1.61-1.16,2.74,0,1,.31,1.86.93,2.57.62.71,1.39,1.35,2.32,1.93.93.58,1.94,1.15,3.04,1.72,1.1.57,2.11,1.2,3.04,1.91.93.71,1.7,1.56,2.32,2.55.62.99.93,2.2.93,3.61,0,1.13-.21,2.16-.64,3.07-.43.91-1.04,1.69-1.84,2.32-.8.63-1.77,1.12-2.92,1.47-1.15.35-2.43.52-3.85.52s-2.74-.17-3.96-.5c-1.22-.33-2.34-.81-3.34-1.43l1.62-5.41h.19c.52,1.88,1.3,3.31,2.34,4.29,1.04.98,2.34,1.47,3.89,1.47,1.39,0,2.49-.36,3.29-1.08.8-.72,1.2-1.67,1.2-2.86,0-1.06-.31-1.95-.93-2.69s-1.39-1.4-2.32-1.99c-.93-.59-1.93-1.17-3.02-1.72s-2.09-1.19-3.02-1.89c-.93-.71-1.7-1.55-2.32-2.51-.62-.97-.93-2.15-.93-3.54Z"/>
        <path class="cls-1" d="M133.23,34.94c0-.64-.07-1.15-.21-1.53-.14-.37-.39-.7-.75-.99v-.19h6.57v.19c-.36.28-.61.61-.75.99-.14.37-.21.88-.21,1.53v8.89h8.51v-8.89c0-.64-.07-1.15-.21-1.53-.14-.37-.39-.7-.75-.99v-.19h6.57v.19c-.36.28-.61.61-.75.99-.14.37-.21.88-.21,1.53v20.88c0,.64.07,1.15.21,1.53.14.37.39.7.75.99v.19h-6.57v-.19c.36-.28.61-.61.75-.99.14-.37.21-.88.21-1.53v-10.44h-8.51v10.44c0,.64.07,1.15.21,1.53.14.37.39.7.75.99v.19h-6.57v-.19c.36-.28.61-.61.75-.99.14-.37.21-.88.21-1.53v-20.88Z"/>
        <path class="cls-1" d="M154.49,47.43c0-1.47.14-3.21.41-5.22.27-2.01.66-4.26,1.18-6.77.33-1.62.27-2.63-.19-3.02v-.19h6.38v.19c-.28.15-.56.59-.81,1.3s-.49,1.55-.7,2.53c-.21.98-.39,2.04-.54,3.17-.15,1.13-.28,2.22-.39,3.27-.1,1.04-.18,1.97-.23,2.78-.05.81-.08,1.4-.08,1.76,0,3.27.65,5.74,1.95,7.38,1.3,1.65,3.02,2.45,5.16,2.4l1.35-.04c.64,0,.97-.41.97-1.24v-20.8c0-.64-.07-1.15-.21-1.53-.14-.37-.39-.7-.75-.99v-.19h6.57v.19c-.36.28-.61.61-.75.99-.14.37-.21.88-.21,1.53v20.88c0,.64.07,1.15.21,1.53.14.37.39.7.75.99v.19h-4.48c-1.11,0-2.08.06-2.9.17s-1.7.19-2.63.21c-1.55.03-2.94-.19-4.18-.64-1.24-.45-2.29-1.15-3.15-2.11-.86-.95-1.53-2.16-2.01-3.61s-.72-3.16-.72-5.12Z"/>
        <path class="cls-1" d="M178.23,34.94c0-.64-.07-1.15-.21-1.53-.14-.37-.39-.7-.75-.99v-.19h8.54c3.17,0,5.58.54,7.23,1.62,1.65,1.08,2.47,2.51,2.47,4.29,0,1.19-.36,2.28-1.08,3.29-.72,1-1.71,1.8-2.98,2.4,3.45,1.08,5.18,3.22,5.18,6.42,0,1.24-.26,2.36-.77,3.38-.52,1.02-1.24,1.89-2.19,2.61-.94.72-2.08,1.28-3.42,1.68-1.34.4-2.84.6-4.49.6h-8.51v-.19c.36-.28.61-.61.75-.99.14-.37.21-.88.21-1.53v-20.88ZM185.15,43.02c.7,0,1.36.02,1.99.06s1.24.11,1.84.21c1.08-.8,1.62-2.06,1.62-3.79s-.6-3.18-1.8-4.19c-1.2-1.02-2.88-1.53-5.04-1.53h-.89v9.24h2.28ZM185.8,56.98c1.88,0,3.34-.47,4.39-1.41,1.04-.94,1.57-2.27,1.57-4,0-1.06-.19-2.01-.58-2.86-.39-.85-.93-1.59-1.64-2.2-.71-.62-1.57-1.1-2.57-1.43-1.01-.33-2.11-.5-3.32-.5h-.77v12.41h2.94Z"/>
      </g>
      <g>
        <path class="cls-1" d="M4.74,67.23c-1.06,0-1.93.2-2.59.59-.66.39-1.16,1.01-1.48,1.85h-.11l.33-3.32h10.37l.33,3.32h-.11c-.33-.84-.82-1.46-1.48-1.85-.66-.39-1.53-.59-2.59-.59v12.63c0,.37.04.66.12.88.08.21.22.4.43.56v.11h-3.77v-.11c.21-.16.35-.35.43-.56.08-.21.12-.51.12-.88v-12.63Z"/>
        <path class="cls-1" d="M13.47,68.47c0-.37-.04-.66-.12-.88-.08-.21-.23-.4-.43-.56v-.11l3.15-.62.07.04v5.27c.34-.46.78-.82,1.33-1.1.55-.27,1.15-.41,1.82-.41.49,0,.93.08,1.34.23.41.15.75.37,1.04.65.29.28.51.62.66,1.01.16.39.23.83.23,1.32v6.54c0,.37.04.66.12.88.08.21.23.4.43.56v.11h-3.77v-.11c.21-.16.35-.35.43-.56.08-.21.12-.51.12-.88v-6.54c0-.53-.16-.96-.48-1.27s-.74-.48-1.27-.48c-.61,0-1.09.19-1.46.58s-.55.89-.55,1.51v6.2c0,.37.04.66.12.88.08.21.22.4.43.56v.11h-3.77v-.11c.21-.16.35-.35.43-.56.08-.21.12-.51.12-.88v-11.39Z"/>
        <path class="cls-1" d="M27.54,77.09c.3.9.76,1.62,1.4,2.16.64.54,1.4.81,2.28.81.62,0,1.19-.13,1.72-.39.52-.26.94-.62,1.25-1.07l.27.22c-.44.89-1.05,1.58-1.82,2.07-.77.49-1.65.74-2.66.74-.77,0-1.49-.14-2.16-.43-.67-.29-1.26-.69-1.76-1.21-.5-.52-.9-1.13-1.19-1.83-.29-.7-.43-1.47-.43-2.29s.14-1.59.43-2.29c.29-.7.69-1.31,1.2-1.83.51-.52,1.11-.92,1.81-1.21.69-.29,1.44-.43,2.24-.43.58,0,1.11.07,1.61.22s.92.35,1.27.62c.36.27.64.58.84.93s.31.73.31,1.13l-6.6,4.08ZM31.59,73.55c-.12-.8-.35-1.41-.7-1.85-.35-.44-.79-.65-1.34-.65-.35,0-.68.09-.96.28-.29.18-.54.44-.75.76-.21.33-.38.72-.49,1.17-.11.46-.17.95-.17,1.48s.04,1,.13,1.44l4.28-2.64Z"/>
        <path class="cls-1" d="M41.1,78.84c0-.52.15-.99.45-1.42.3-.43.73-.82,1.29-1.16.55-.35,1.23-.65,2.02-.91.79-.26,1.68-.48,2.67-.65v-1.29c0-.74-.17-1.33-.51-1.76-.34-.44-.81-.65-1.4-.65-.68,0-1.27.29-1.78.87s-.87,1.4-1.07,2.45h-.11l-.51-2.88c.37-.43.88-.76,1.52-.99.64-.23,1.36-.34,2.16-.34.65,0,1.24.08,1.78.24.54.16,1,.39,1.39.68.38.29.68.64.89,1.04.21.41.31.85.31,1.34v6.45c0,.37.04.66.12.88.08.21.23.4.43.56v.11h-2.57c-.64,0-1.19.04-1.66.11s-.97.11-1.51.11c-.64,0-1.2-.07-1.68-.22-.49-.15-.9-.35-1.23-.61-.33-.26-.58-.56-.74-.9s-.24-.69-.24-1.06ZM47.52,75.52c-1.26.33-2.16.73-2.72,1.21-.56.48-.84,1.06-.84,1.74,0,.28.05.55.16.82s.25.5.43.7c.19.2.42.35.7.46.28.11.6.16.95.14l.78-.02c.37-.01.55-.25.55-.71v-4.34Z"/>
        <path class="cls-1" d="M52.84,72.46c0-.37-.04-.66-.12-.87-.08-.21-.23-.4-.43-.56v-.11l3.15-.62.07.04v1.22c.31-.44.71-.79,1.2-1.05.49-.26,1.01-.39,1.57-.39.41,0,.77.07,1.09.2.31.13.55.32.73.55l-.93,3.1h-.11c-.07-.8-.26-1.41-.56-1.83s-.7-.63-1.19-.63c-.52,0-.94.2-1.28.61-.34.41-.51.92-.51,1.54v6.2c0,.37.04.66.12.88.08.21.22.4.43.56v.11h-3.77v-.11c.21-.16.35-.35.43-.56.08-.21.12-.51.12-.88v-7.4Z"/>
        <path class="cls-1" d="M64.69,81.63c-.75,0-1.36-.24-1.82-.73-.46-.49-.69-1.11-.69-1.86v-8.04h-1.11v-.66h1.11l2.44-2.08h.22v2.08h1.99v.66h-1.99v8.04c0,.4.09.72.28.97.18.25.42.38.72.38.27,0,.49-.1.69-.31.19-.21.33-.5.42-.89h.22c-.03.74-.27,1.33-.73,1.77-.46.44-1.04.66-1.75.66Z"/>
        <path class="cls-1" d="M73.93,75.87c0-.83.14-1.59.43-2.29.29-.7.69-1.31,1.2-1.83.51-.52,1.12-.92,1.82-1.21.7-.29,1.46-.43,2.27-.43s1.57.14,2.26.43c.69.29,1.3.69,1.81,1.21.51.52.91,1.13,1.2,1.83.29.7.43,1.47.43,2.29s-.14,1.59-.43,2.29c-.29.7-.69,1.31-1.2,1.83-.51.52-1.11.92-1.81,1.21-.69.29-1.45.43-2.26.43s-1.57-.14-2.27-.43c-.7-.29-1.31-.69-1.82-1.21-.51-.52-.91-1.13-1.2-1.83-.29-.7-.43-1.47-.43-2.29ZM76.7,74.77c0,.75.09,1.49.27,2.2.18.72.42,1.35.74,1.89s.69.99,1.13,1.32c.44.33.9.5,1.41.5.69,0,1.26-.31,1.68-.94.43-.63.64-1.55.64-2.76,0-.75-.09-1.49-.27-2.2-.18-.72-.42-1.35-.74-1.89s-.69-.99-1.12-1.32c-.43-.33-.9-.5-1.42-.5-.69,0-1.26.31-1.68.94-.43.63-.64,1.55-.64,2.76Z"/>
        <path class="cls-1" d="M91.57,67.01c-.19,0-.38.06-.55.18s-.33.31-.47.58c-.13.27-.24.61-.32,1.03s-.12.93-.12,1.54h2.15v.66h-2.15v8.86c0,.37.04.66.12.88s.23.4.43.56v.11h-3.77v-.11c.21-.16.35-.35.43-.56.08-.21.12-.51.12-.88v-8.86h-1.11v-.66h1.11c0-.61.1-1.16.31-1.67s.49-.95.85-1.33c.36-.38.79-.67,1.3-.89.5-.21,1.04-.32,1.62-.32.53,0,1.06.09,1.57.28.52.19.99.46,1.42.83l-1.37,2.22h-.11c-.21-1.62-.69-2.44-1.46-2.44Z"/>
        <path class="cls-1" d="M101.94,68.47c0-.37-.04-.66-.12-.88-.08-.21-.23-.4-.43-.56v-.11l3.15-.62.07.04v5.07c.32-.4.73-.72,1.22-.95.49-.24,1.02-.35,1.59-.35.65,0,1.26.15,1.82.44.56.3,1.04.7,1.45,1.21s.73,1.11.96,1.81c.24.69.35,1.44.35,2.24s-.12,1.55-.35,2.26c-.24.71-.55,1.33-.95,1.86-.4.53-.87.95-1.42,1.25s-1.13.45-1.75.45-1.2-.16-1.69-.48c-.49-.32-.9-.78-1.23-1.39-.03.5-.18.9-.45,1.2-.27.3-.64.44-1.1.44h-1.66v-.11c.21-.16.35-.35.43-.56.08-.21.12-.51.12-.88v-11.39ZM104.6,77.56c.06.44.17.85.33,1.23.16.38.36.7.59.98.23.27.49.49.79.65.3.16.6.24.91.24.65,0,1.15-.32,1.51-.96.35-.64.53-1.54.53-2.69,0-.8-.09-1.53-.25-2.19-.17-.66-.4-1.24-.69-1.73-.29-.49-.62-.86-.99-1.13-.37-.27-.76-.4-1.17-.4-.49,0-.87.19-1.14.55-.27.37-.41.9-.41,1.6v3.85Z"/>
        <path class="cls-1" d="M116.2,77.09c.3.9.76,1.62,1.4,2.16.64.54,1.4.81,2.28.81.62,0,1.19-.13,1.72-.39.52-.26.94-.62,1.25-1.07l.27.22c-.44.89-1.05,1.58-1.82,2.07-.77.49-1.65.74-2.66.74-.77,0-1.49-.14-2.16-.43-.67-.29-1.26-.69-1.76-1.21-.5-.52-.9-1.13-1.19-1.83-.29-.7-.43-1.47-.43-2.29s.14-1.59.43-2.29c.29-.7.69-1.31,1.2-1.83.51-.52,1.11-.92,1.81-1.21.69-.29,1.44-.43,2.24-.43.58,0,1.11.07,1.61.22s.92.35,1.27.62c.36.27.64.58.84.93s.31.73.31,1.13l-6.6,4.08ZM120.26,73.55c-.12-.8-.35-1.41-.7-1.85-.35-.44-.79-.65-1.34-.65-.35,0-.68.09-.96.28-.29.18-.54.44-.75.76-.21.33-.38.72-.49,1.17-.11.46-.17.95-.17,1.48s.04,1,.13,1.44l4.28-2.64Z"/>
        <path class="cls-1" d="M125,72.46c0-.37-.04-.66-.12-.87-.08-.21-.23-.4-.43-.56v-.11l3.15-.62.07.04v9.53c0,.37.04.66.12.88.08.21.22.4.43.56v.11h-3.77v-.11c.21-.16.35-.35.43-.56.08-.21.12-.51.12-.88v-7.4ZM124.8,68.14c0-.43.14-.78.42-1.06.28-.28.63-.42,1.06-.42s.78.14,1.06.42.42.64.42,1.06-.14.79-.42,1.07c-.28.29-.64.43-1.06.43s-.78-.14-1.06-.43c-.28-.29-.42-.65-.42-1.07Z"/>
        <path class="cls-1" d="M130.32,72.46c0-.37-.04-.66-.12-.87-.08-.21-.23-.4-.43-.56v-.11l3.15-.62.07.04v1.29c.34-.46.78-.82,1.33-1.1.55-.27,1.15-.41,1.82-.41.49,0,.93.08,1.34.23.41.15.75.37,1.04.65.29.28.51.62.66,1.01.16.39.23.83.23,1.32v6.54c0,.37.04.66.12.88.08.21.23.4.43.56v.11h-3.77v-.11c.21-.16.35-.35.43-.56.08-.21.12-.51.12-.88v-6.54c0-.53-.16-.96-.48-1.27s-.74-.48-1.27-.48c-.61,0-1.09.19-1.46.58s-.55.89-.55,1.51v6.2c0,.37.04.66.12.88.08.21.22.4.43.56v.11h-3.77v-.11c.21-.16.35-.35.43-.56.08-.21.12-.51.12-.88v-7.4Z"/>
        <path class="cls-1" d="M141.28,74.66c0-.65.13-1.25.39-1.81.26-.55.62-1.03,1.09-1.44.46-.41,1.01-.72,1.64-.95.63-.23,1.3-.34,2.03-.34.92,0,1.77.19,2.55.55.16-.71.42-1.31.77-1.81.36-.49.77-.8,1.24-.92l.38,2.22c-.89,0-1.47.3-1.75.89.61.41,1.08.93,1.42,1.55s.51,1.31.51,2.06c0,.65-.13,1.25-.39,1.81-.26.55-.62,1.03-1.07,1.44s-1,.72-1.63.95c-.63.23-1.3.34-2.03.34-.87,0-1.65-.16-2.35-.47-.38.28-.68.57-.9.86-.21.3-.32.58-.32.86,0,.55.43.82,1.29.82.43,0,.85-.06,1.26-.19.41-.13.83-.26,1.26-.4s.86-.27,1.3-.4c.44-.13.88-.19,1.34-.19,1.49,0,2.24.78,2.24,2.35,0,.81-.19,1.57-.58,2.26h-.11c0-1.17-.59-1.75-1.77-1.75-.4,0-.83.05-1.29.14-.46.1-.92.21-1.38.33-.47.13-.93.24-1.39.33-.46.1-.88.14-1.26.14-.78,0-1.39-.21-1.83-.64-.44-.43-.65-.97-.65-1.64,0-.62.18-1.23.54-1.82.36-.59.85-1.09,1.47-1.51-.62-.41-1.11-.93-1.47-1.55-.36-.62-.54-1.32-.54-2.11ZM144.12,73.86c0,.58.07,1.13.21,1.66s.33,1,.58,1.41c.24.41.53.74.86.99.33.25.7.38,1.1.38.53,0,.97-.24,1.32-.71.35-.47.52-1.18.52-2.13,0-.61-.07-1.18-.22-1.72-.15-.54-.34-1.01-.59-1.41-.24-.4-.53-.72-.86-.95s-.69-.35-1.07-.35c-.53,0-.97.24-1.32.71-.35.47-.52,1.18-.52,2.13Z"/>
        <path class="cls-1" d="M158.94,71.69c-.16-.35-.32-.63-.46-.82-.15-.19-.32-.33-.51-.42v-.11h3.32l3.59,9.04,1.44-3.63-1.24-3.15,1.09-2.26h.89l3.59,9.04,1.57-3.92c.46-1.29.66-2.37.61-3.27-.05-.89-.35-1.47-.9-1.74v-.11h3.28l-4.08,10.24.33.84h-2.88l-1.77-4.48-1.44,3.63.33.84h-2.88l-3.88-9.73Z"/>
        <path class="cls-1" d="M178.53,77.09c.3.9.76,1.62,1.4,2.16.64.54,1.4.81,2.28.81.62,0,1.19-.13,1.72-.39.52-.26.94-.62,1.25-1.07l.27.22c-.44.89-1.05,1.58-1.82,2.07-.77.49-1.65.74-2.66.74-.77,0-1.49-.14-2.16-.43-.67-.29-1.26-.69-1.76-1.21-.5-.52-.9-1.13-1.19-1.83-.29-.7-.43-1.47-.43-2.29s.14-1.59.43-2.29c.29-.7.69-1.31,1.2-1.83.51-.52,1.11-.92,1.81-1.21.69-.29,1.44-.43,2.24-.43.58,0,1.11.07,1.61.22s.92.35,1.27.62c.36.27.64.58.84.93s.31.73.31,1.13l-6.6,4.08ZM182.58,73.55c-.12-.8-.35-1.41-.7-1.85-.35-.44-.79-.65-1.34-.65-.35,0-.68.09-.96.28-.29.18-.54.44-.75.76-.21.33-.38.72-.49,1.17-.11.46-.17.95-.17,1.48s.04,1,.13,1.44l4.28-2.64Z"/>
        <path class="cls-1" d="M187.32,68.47c0-.37-.04-.66-.12-.88-.08-.21-.23-.4-.43-.56v-.11l3.15-.62.07.04v13.51c0,.37.04.66.12.88.08.21.22.4.43.56v.11h-3.77v-.11c.21-.16.35-.35.43-.56.08-.21.12-.51.12-.88v-11.39Z"/>
        <path class="cls-1" d="M192.64,68.47c0-.37-.04-.66-.12-.88-.08-.21-.23-.4-.43-.56v-.11l3.15-.62.07.04v13.51c0,.37.04.66.12.88.08.21.22.4.43.56v.11h-3.77v-.11c.21-.16.35-.35.43-.56.08-.21.12-.51.12-.88v-11.39Z"/>
      </g>
    </g>
  </g>
</svg>