<?xml version="1.0" encoding="UTF-8"?>
<svg id="Layer_2" data-name="Layer 2" xmlns="http://www.w3.org/2000/svg" viewBox="0 0 120.06 120.06">
  <defs>
    <style>
      .cls-1 {
        fill: #bbb1ab;
      }

      .cls-2 {
        fill: #83351b;
      }

      .cls-3 {
        fill: #2a1812;
      }
    </style>
  </defs>
  <g id="Layer_1-2" data-name="Layer 1">
    <g>
      <circle class="cls-2" cx="60.03" cy="60.03" r="60.03"/>
      <g>
        <path class="cls-1" d="M19.42,47.25c-.58-1.41-1.23-2.31-1.94-2.68v-.23h6.78l9.18,26.52,4.2-12.04-3.55-10.19,2.54-4.29h1.85l9.18,26.52,4.34-12.46c1.17-3.78,1.71-6.84,1.64-9.18-.08-2.34-.76-3.89-2.05-4.66v-.23h7.29l-10.2,29.38.69,1.98h-5.86l-4.89-14.02-4.15,12.04.69,1.98h-5.86l-9.87-28.46Z"/>
        <path class="cls-3" d="M66.91,51.23c.77,0,1.53.1,2.26.31.74.21,1.4.52,1.99.92l-1.06,3.52h-.13c-.18-1.21-.53-2.13-1.03-2.78-.5-.65-1.13-.97-1.89-.97-.59,0-1.06.21-1.42.64-.36.43-.54,1.08-.54,1.95,0,.81.16,1.66.49,2.55.33.9.83,1.92,1.52,3.06l1.84-3.3c1.32,0,2.34.29,3.04.88.7.59,1.06,1.4,1.06,2.44,0,.77-.2,1.56-.6,2.35-.4.8-.99,1.57-1.76,2.33,1.04.99,2.02,1.48,2.94,1.48.77,0,1.28-.36,1.53-1.08l.25.05c-.08,1.01-.4,1.8-.94,2.38-.55.58-1.3.87-2.25.87-.59,0-1.19-.13-1.81-.4-.62-.27-1.24-.65-1.86-1.13-.52.52-1.12.91-1.8,1.16-.68.25-1.42.38-2.23.38s-1.58-.12-2.26-.37c-.69-.24-1.28-.58-1.79-1.01-.5-.43-.9-.93-1.18-1.5-.29-.57-.43-1.17-.43-1.81,0-1.06.37-2,1.09-2.83.73-.83,1.74-1.45,3.03-1.85-.64-1.51-.96-2.82-.96-3.93,0-.64.11-1.22.34-1.76.23-.54.55-.99.97-1.37.42-.38.93-.67,1.53-.88.6-.21,1.28-.31,2.04-.31ZM67.89,66.73c-.94-.86-1.8-1.86-2.58-3.01-.78-1.15-1.44-2.3-1.97-3.46-.49.22-.83.56-1.02,1.02-.19.46-.29,1.04-.29,1.72s.08,1.26.25,1.81.41,1.03.72,1.43c.31.4.69.72,1.13.96s.94.35,1.5.35c.86,0,1.61-.28,2.26-.83ZM70.06,64.54c.52-.57.91-1.1,1.17-1.6.26-.49.39-.99.39-1.47,0-.59-.18-1.03-.54-1.33-.36-.3-.88-.45-1.57-.45-.91,0-1.68.3-2.31.91.42.7.86,1.39,1.33,2.06.47.67.98,1.3,1.53,1.89Z"/>
        <path class="cls-1" d="M100.65,72.81c.58,1.42,1.23,2.31,1.94,2.68v.23h-6.78l-4.66-13.38h-9.09c-1.02,3.57-1.47,6.47-1.36,8.7.11,2.23.78,3.71,2.01,4.45v.23h-7.29l10.19-29.38-.69-1.98h5.86l9.87,28.46ZM90.5,60.49l-3.87-11.3-3.92,11.3h7.8Z"/>
      </g>
    </g>
  </g>
</svg>