<?xml version="1.0" encoding="UTF-8"?>
<svg id="Layer_2" data-name="Layer 2" xmlns="http://www.w3.org/2000/svg" viewBox="0 0 136.23 40.85">
  <defs>
    <style>
      .cls-1 {
        fill: #bbb1ab;
      }
    </style>
  </defs>
  <g id="Layer_1-2" data-name="Layer 1">
    <g>
      <path class="cls-1" d="M1.1,1.91C.77,1.11.4.6,0,.39v-.13h3.84l5.2,15.02,2.38-6.82-2.01-5.77,1.44-2.43h1.04l5.2,15.02,2.46-7.05c.66-2.14.97-3.87.93-5.2-.04-1.32-.43-2.2-1.16-2.64v-.13h4.13l-5.77,16.64.39,1.12h-3.32l-2.77-7.94-2.35,6.82.39,1.12h-3.32L1.1,1.91Z"/>
      <path class="cls-1" d="M25.39,2.09c0-.44-.05-.78-.14-1.03-.1-.25-.27-.47-.51-.67v-.13h10.48l.39,3.92h-.13c-.37-.99-1-1.72-1.91-2.18-.91-.46-2.14-.69-3.71-.69h-1.33v6.79h2.22c.84,0,1.48-.09,1.95-.26.46-.17.77-.44.93-.78h.13v3.14h-.13c-.16-.35-.47-.61-.93-.78-.46-.17-1.11-.26-1.95-.26h-2.22v7.84h1.59c2.89,0,4.76-1.04,5.62-3.14h.13l-.26,4.18h-10.87v-.13c.24-.19.41-.41.51-.67.1-.25.14-.6.14-1.03V2.09Z"/>
      <path class="cls-1" d="M38.22,2.09c0-.44-.05-.78-.14-1.03-.1-.25-.27-.47-.51-.67v-.13h4.44v.13c-.24.19-.41.41-.51.67-.1.25-.14.6-.14,1.03v14.89h1.59c2.89,0,4.76-1.04,5.62-3.14h.13l-.26,4.18h-10.87v-.13c.24-.19.41-.41.51-.67.1-.25.14-.6.14-1.03V2.09Z"/>
      <path class="cls-1" d="M51.04,2.09c0-.44-.05-.78-.14-1.03-.1-.25-.27-.47-.51-.67v-.13h4.44v.13c-.24.19-.41.41-.51.67-.1.25-.14.6-.14,1.03v14.89h1.59c2.89,0,4.76-1.04,5.62-3.14h.13l-.26,4.18h-10.87v-.13c.24-.19.41-.41.51-.67.1-.25.14-.6.14-1.03V2.09Z"/>
      <path class="cls-1" d="M63.09,9.14h7.31v1.05h-7.31v-1.05Z"/>
      <path class="cls-1" d="M72.75,2.09c0-.44-.05-.78-.14-1.03-.1-.25-.27-.47-.51-.67v-.13h5.77c2.14,0,3.77.37,4.88,1.1s1.67,1.7,1.67,2.9c0,.8-.24,1.54-.73,2.22-.49.68-1.16,1.22-2.01,1.62,2.33.73,3.5,2.18,3.5,4.34,0,.84-.17,1.6-.52,2.29-.35.69-.84,1.28-1.48,1.76-.64.49-1.41.87-2.31,1.14-.91.27-1.92.4-3.03.4h-5.75v-.13c.24-.19.41-.41.51-.67.1-.25.14-.6.14-1.03V2.09ZM77.43,7.55c.47,0,.92.01,1.35.04s.84.07,1.24.14c.73-.54,1.1-1.39,1.1-2.56s-.4-2.15-1.22-2.83c-.81-.69-1.95-1.03-3.41-1.03h-.6v6.24h1.54ZM77.87,16.98c1.27,0,2.26-.32,2.96-.95.71-.64,1.06-1.54,1.06-2.7,0-.71-.13-1.36-.39-1.93-.26-.57-.63-1.07-1.11-1.49-.48-.42-1.06-.74-1.74-.97-.68-.23-1.43-.34-2.25-.34h-.52v8.39h1.99Z"/>
      <path class="cls-1" d="M87.41,2.09c0-.44-.05-.78-.14-1.03-.1-.25-.27-.47-.51-.67v-.13h10.48l.39,3.92h-.13c-.37-.99-1-1.72-1.91-2.18-.91-.46-2.14-.69-3.71-.69h-1.33v6.79h2.22c.84,0,1.48-.09,1.95-.26.46-.17.77-.44.93-.78h.13v3.14h-.13c-.16-.35-.47-.61-.93-.78-.46-.17-1.11-.26-1.95-.26h-2.22v7.84h1.59c2.89,0,4.76-1.04,5.62-3.14h.13l-.26,4.18h-10.87v-.13c.24-.19.41-.41.51-.67.1-.25.14-.6.14-1.03V2.09Z"/>
      <path class="cls-1" d="M100.23,2.09c0-.44-.05-.78-.14-1.03-.1-.25-.27-.47-.51-.67v-.13h4.44v.13c-.24.19-.41.41-.51.67-.1.25-.14.6-.14,1.03v14.11c0,.44.05.78.14,1.03.1.25.27.47.51.67v.13h-4.44v-.13c.24-.19.41-.41.51-.67.1-.25.14-.6.14-1.03V2.09Z"/>
      <path class="cls-1" d="M107.81,14.81c0,.85.07,1.52.21,2.01s.37.84.71,1.07v.13h-2.87v-.13c.33-.23.57-.58.71-1.07.14-.49.21-1.16.21-2.01V3.47c0-.85-.07-1.52-.21-2.01-.14-.49-.38-.84-.71-1.07v-.13h3.55l8.33,13.48V3.47c0-.85-.07-1.52-.21-2.01s-.37-.84-.71-1.07v-.13h2.87v.13c-.33.23-.57.58-.71,1.07s-.21,1.16-.21,2.01v14.55h-2.09l-8.88-14.39v11.18Z"/>
      <path class="cls-1" d="M134.45,4.96h-.13c-.24-1.24-.78-2.19-1.61-2.87-.83-.68-1.85-1.02-3.07-1.02-.73,0-1.41.13-2.04.39-.63.26-1.17.67-1.63,1.21-.46.55-.82,1.25-1.08,2.09-.26.84-.39,1.85-.39,3.02,0,1.25.15,2.42.46,3.49.3,1.07.74,2,1.31,2.78.57.78,1.24,1.4,2.01,1.84.77.44,1.63.67,2.57.67.57,0,1.11-.08,1.59-.24v-5.12c0-.44-.05-.78-.14-1.03-.1-.25-.27-.47-.51-.67v-.13h4.44v.13c-.24.19-.41.41-.51.67-.1.25-.14.6-.14,1.03v7.08h-.13c-.51-.78-1.11-1.18-1.8-1.18-.31,0-.63.06-.95.18-.32.12-.67.26-1.03.4-.37.15-.77.28-1.22.4-.44.12-.95.18-1.53.18-1.04,0-2.03-.23-2.96-.69-.93-.46-1.74-1.1-2.43-1.92-.69-.82-1.24-1.78-1.65-2.89-.41-1.11-.61-2.29-.61-3.57,0-1.34.22-2.57.67-3.7.44-1.12,1.06-2.09,1.86-2.91.79-.82,1.73-1.46,2.81-1.92,1.08-.46,2.25-.69,3.5-.69.78,0,1.59.09,2.43.26.84.17,1.58.44,2.25.78l-.31,3.92Z"/>
      <path class="cls-1" d="M10.07,22.1c.82,0,1.62.11,2.41.33.79.22,1.49.55,2.12.98l-1.12,3.75h-.13c-.2-1.29-.56-2.27-1.1-2.96-.54-.69-1.21-1.03-2.01-1.03-.63,0-1.13.23-1.51.68-.38.46-.58,1.15-.58,2.08,0,.86.17,1.76.52,2.72.35.96.89,2.04,1.62,3.25l1.96-3.51c1.41,0,2.49.31,3.24.94.75.63,1.12,1.49,1.12,2.6,0,.82-.21,1.66-.64,2.5-.43.85-1.05,1.67-1.88,2.48,1.11,1.05,2.15,1.58,3.13,1.58.82,0,1.37-.38,1.63-1.15l.27.05c-.09,1.07-.42,1.92-1,2.53-.58.62-1.38.92-2.4.92-.63,0-1.27-.14-1.93-.43s-1.32-.69-1.98-1.21c-.55.55-1.19.96-1.92,1.23-.72.27-1.51.4-2.37.4s-1.68-.13-2.41-.39c-.73-.26-1.37-.62-1.9-1.07-.54-.45-.96-.99-1.26-1.59-.3-.61-.46-1.25-.46-1.93,0-1.12.39-2.13,1.17-3.01.78-.88,1.85-1.54,3.23-1.97-.68-1.61-1.02-3-1.02-4.18,0-.68.12-1.3.36-1.87s.58-1.06,1.03-1.46c.45-.4.99-.71,1.63-.94.64-.22,1.37-.33,2.17-.33ZM11.12,38.6c-1-.91-1.92-1.98-2.75-3.2-.83-1.22-1.53-2.45-2.1-3.68-.52.23-.88.59-1.09,1.09-.21.49-.31,1.1-.31,1.83s.09,1.34.27,1.93c.18.59.43,1.1.76,1.53s.73.77,1.21,1.02c.47.25,1,.38,1.59.38.91,0,1.71-.29,2.41-.88ZM13.42,36.27c.55-.61.97-1.17,1.25-1.7.28-.53.42-1.05.42-1.57,0-.62-.19-1.1-.58-1.42-.38-.32-.94-.48-1.67-.48-.96,0-1.79.32-2.46.96.45.75.92,1.48,1.42,2.2.5.71,1.04,1.38,1.63,2.01Z"/>
      <path class="cls-1" d="M39.78,38.9c.34.82.71,1.34,1.12,1.55v.13h-3.94l-2.71-7.77h-5.28c-.59,2.07-.85,3.75-.79,5.05.06,1.29.45,2.16,1.16,2.58v.13h-4.23l5.92-17.06-.4-1.15h3.4l5.73,16.53ZM33.88,31.74l-2.25-6.56-2.28,6.56h4.53Z"/>
      <path class="cls-1" d="M42.91,24.24c0-.45-.05-.8-.15-1.06-.1-.26-.27-.49-.52-.68v-.13h6.46c2.2,0,3.86.38,5,1.15,1.13.77,1.7,1.9,1.7,3.4,0,1.29-.42,2.39-1.26,3.32-.84.93-2.02,1.62-3.54,2.06l4.26,6.56c.59.86,1.1,1.38,1.53,1.58v.13h-1.39c-1.02,0-1.87-.17-2.54-.52-.68-.35-1.27-.91-1.77-1.7l-3.56-5.54c-.11.02-.22.03-.33.03h-.66v5.87c0,.45.05.8.15,1.06.1.26.27.49.52.68v.13h-4.55v-.13c.25-.2.42-.42.52-.68.1-.26.15-.61.15-1.06v-14.46ZM46.39,31.77c1.84,0,3.24-.34,4.19-1.03.95-.69,1.43-1.7,1.43-3.04,0-.64-.11-1.23-.33-1.76-.22-.53-.54-.97-.96-1.34-.42-.37-.92-.65-1.5-.86-.58-.21-1.23-.31-1.94-.31h-1.15v8.33h.27Z"/>
      <path class="cls-1" d="M62.25,23.44c-1.29,0-2.33.24-3.13.71-.8.47-1.4,1.22-1.79,2.24h-.13l.4-4.02h12.54l.4,4.02h-.13c-.39-1.02-.99-1.76-1.79-2.24s-1.85-.71-3.13-.71v15.27c0,.45.05.8.15,1.06.1.26.27.49.52.68v.13h-4.55v-.13c.25-.2.42-.42.52-.68.1-.26.15-.61.15-1.06v-15.27Z"/>
      <path class="cls-1" d="M71.86,27.08c0-.77.14-1.46.43-2.08.29-.62.7-1.14,1.23-1.57.54-.43,1.18-.76,1.94-.99.76-.23,1.6-.35,2.53-.35s1.85.12,2.72.35c.87.23,1.65.56,2.34.99l-1.12,3.75h-.13c-.36-1.3-.88-2.29-1.58-2.97-.7-.68-1.57-1.02-2.63-1.02-.91,0-1.63.24-2.17.72-.54.48-.8,1.12-.8,1.9,0,.7.21,1.29.64,1.78.43.49.96.94,1.61,1.34.64.4,1.34.8,2.1,1.19s1.46.83,2.1,1.33c.64.49,1.18,1.08,1.61,1.77.43.69.64,1.52.64,2.5,0,.79-.15,1.5-.44,2.13s-.72,1.17-1.27,1.61c-.55.44-1.23.78-2.02,1.02-.8.24-1.68.36-2.67.36s-1.9-.12-2.75-.35-1.62-.56-2.32-.99l1.13-3.75h.13c.36,1.3.9,2.29,1.62,2.97.72.68,1.62,1.02,2.69,1.02.96,0,1.72-.25,2.28-.75.55-.5.83-1.16.83-1.98,0-.73-.21-1.35-.64-1.86s-.96-.97-1.61-1.38c-.64-.41-1.34-.81-2.09-1.19s-1.45-.82-2.09-1.31c-.64-.49-1.18-1.07-1.61-1.74-.43-.67-.64-1.49-.64-2.45Z"/>
      <path class="cls-1" d="M92.3,24.24c0-.45-.05-.8-.15-1.06-.1-.26-.27-.49-.52-.68v-.13h4.55v.13c-.25.2-.42.42-.52.68-.1.26-.15.61-.15,1.06v6.16h5.89v-6.16c0-.45-.05-.8-.15-1.06-.1-.26-.27-.49-.52-.68v-.13h4.55v.13c-.25.2-.42.42-.52.68-.1.26-.15.61-.15,1.06v14.46c0,.45.05.8.15,1.06.1.26.27.49.52.68v.13h-4.55v-.13c.25-.2.42-.42.52-.68.1-.26.15-.61.15-1.06v-7.23h-5.89v7.23c0,.45.05.8.15,1.06.1.26.27.49.52.68v.13h-4.55v-.13c.25-.2.42-.42.52-.68.1-.26.15-.61.15-1.06v-14.46Z"/>
      <path class="cls-1" d="M107.03,32.9c0-1.02.09-2.22.28-3.62.19-1.39.46-2.95.82-4.69.23-1.12.19-1.82-.13-2.09v-.13h4.42v.13c-.2.11-.38.41-.56.9s-.34,1.08-.48,1.75c-.14.68-.27,1.41-.38,2.2s-.2,1.54-.27,2.26c-.07.72-.12,1.37-.16,1.93-.04.56-.05.97-.05,1.22,0,2.27.45,3.97,1.35,5.12.9,1.14,2.09,1.7,3.58,1.66l.94-.03c.45,0,.67-.29.67-.86v-14.41c0-.45-.05-.8-.15-1.06-.1-.26-.27-.49-.52-.68v-.13h4.55v.13c-.25.2-.42.42-.52.68-.1.26-.15.61-.15,1.06v14.46c0,.45.05.8.15,1.06.1.26.27.49.52.68v.13h-3.11c-.77,0-1.44.04-2.01.12s-1.18.13-1.82.15c-1.07.02-2.04-.13-2.89-.44s-1.58-.8-2.18-1.46c-.6-.66-1.06-1.5-1.39-2.5s-.5-2.19-.5-3.55Z"/>
      <path class="cls-1" d="M123.48,24.24c0-.45-.05-.8-.15-1.06-.1-.26-.27-.49-.52-.68v-.13h5.92c2.2,0,3.87.38,5.01,1.12,1.14.75,1.71,1.74,1.71,2.97,0,.82-.25,1.58-.75,2.28-.5.7-1.19,1.25-2.06,1.66,2.39.75,3.59,2.23,3.59,4.45,0,.86-.18,1.64-.54,2.34-.36.71-.86,1.31-1.51,1.81-.65.5-1.44.89-2.37,1.17-.93.28-1.96.42-3.11.42h-5.89v-.13c.25-.2.42-.42.52-.68.1-.26.15-.61.15-1.06v-14.46ZM128.27,29.84c.48,0,.94.01,1.38.04s.86.08,1.27.15c.75-.55,1.12-1.43,1.12-2.63s-.42-2.2-1.25-2.91c-.83-.71-2-1.06-3.5-1.06h-.62v6.4h1.58ZM128.73,39.51c1.3,0,2.32-.33,3.04-.98.72-.65,1.09-1.58,1.09-2.77,0-.73-.13-1.39-.4-1.98-.27-.59-.65-1.1-1.14-1.53-.49-.43-1.09-.76-1.78-.99-.7-.23-1.46-.35-2.3-.35h-.54v8.6h2.04Z"/>
    </g>
  </g>
</svg>