<?xml version="1.0" encoding="UTF-8"?>
<svg id="Layer_2" xmlns="http://www.w3.org/2000/svg" version="1.1" viewBox="0 0 197.1 85">
  <!-- Generator: Adobe Illustrator 29.5.0, SVG Export Plug-In . SVG Version: 2.1.0 Build 137)  -->
  <defs>
    <style>
      .st0 {
        fill: #83351b;
      }

      .st1 {
        fill: #bbb1ab;
      }
    </style>
  </defs>
  <g id="Layer_1">
    <g>
      <path class="st1" d="M2.1,2.4C1.6,1.2,1.1.5.5.2V0h5.5l7.5,21.7,3.4-9.8-2.9-8.3L16.1,0h1.5l7.5,21.7,3.5-10.2c1-3.1,1.4-5.6,1.3-7.5s-.6-3.2-1.7-3.8V0h6l-8.3,24,.6,1.6h-4.8l-4-11.5-3.4,9.8.6,1.6h-4.8L2.1,2.4h0Z"/>
      <path class="st1" d="M37.1,2.6c0-.6,0-1.1-.2-1.5,0-.4-.4-.7-.7-1h0C36.2,0,51.3,0,51.3,0l.6,5.7h-.2c-.5-1.4-1.4-2.5-2.8-3.2-1.3-.7-3.1-1-5.4-1h-1.9v9.8h3.2c1.2,0,2.1-.1,2.8-.4s1.1-.6,1.3-1.1h.2v4.5h-.2c-.2-.5-.7-.9-1.3-1.1s-1.6-.4-2.8-.4h-3.2v11.3h2.3c4.2,0,6.9-1.5,8.1-4.5h.2l-.4,6h-15.7v-.2c.4-.3.6-.6.7-1,0-.4.2-.9.2-1.5V2.6h.1Z"/>
      <path class="st1" d="M55.6,2.6c0-.6,0-1.1-.2-1.5,0-.4-.4-.7-.7-1h0C54.7,0,61.1,0,61.1,0v.2c-.4.3-.6.6-.7,1,0,.4-.2.9-.2,1.5v21.5h2.3c4.2,0,6.9-1.5,8.1-4.5h.2l-.4,6h-15.7v-.2c.4-.3.6-.6.7-1,0-.4.2-.9.2-1.5V2.6h0Z"/>
      <path class="st1" d="M74.2,2.6c0-.6,0-1.1-.2-1.5,0-.4-.4-.7-.7-1h0C73.3,0,79.7,0,79.7,0v.2c-.4.3-.6.6-.7,1,0,.4-.2.9-.2,1.5v21.5h2.3c4.2,0,6.9-1.5,8.1-4.5h.2l-.4,6h-15.7v-.2c.4-.3.6-.6.7-1s.2-.9.2-1.5V2.6h0Z"/>
      <path class="st1" d="M91.5,13.2h10.6v1.5h-10.6v-1.5Z"/>
      <path class="st1" d="M105.5,2.6c0-.6,0-1.1-.2-1.5,0-.4-.4-.7-.7-1h0C104.6,0,112.9,0,112.9,0,116,0,118.3.5,119.9,1.6s2.4,2.5,2.4,4.2-.4,2.2-1.1,3.2-1.7,1.8-2.9,2.3c3.4,1.1,5,3.1,5,6.3s-.2,2.3-.8,3.3-1.2,1.8-2.1,2.5-2,1.2-3.3,1.6-2.8.6-4.4.6h-8.3v-.2c.4-.3.6-.6.7-1s.2-.9.2-1.5V2.6h.2ZM112.2,10.5h1.9c.6,0,1.2.1,1.8.2,1.1-.8,1.6-2,1.6-3.7s-.6-3.1-1.8-4.1c-1.2-1-2.8-1.5-4.9-1.5h-.9v9h2.3ZM112.9,24.1c1.8,0,3.3-.5,4.3-1.4s1.5-2.2,1.5-3.9-.2-2-.6-2.8c-.4-.8-.9-1.6-1.6-2.1-.7-.6-1.5-1.1-2.5-1.4-1-.3-2.1-.5-3.2-.5h-.8v12.1h2.9,0Z"/>
      <path class="st1" d="M126.6,2.6c0-.6,0-1.1-.2-1.5,0-.4-.4-.7-.7-1h0C125.7,0,140.8,0,140.8,0l.6,5.7h-.2c-.5-1.4-1.5-2.5-2.8-3.2s-3.1-1-5.4-1h-1.9v9.8h3.2c1.2,0,2.1-.1,2.8-.4.7-.2,1.1-.6,1.3-1.1h.2v4.5h-.2c-.2-.5-.7-.9-1.3-1.1-.7-.2-1.6-.4-2.8-.4h-3.2v11.3h2.3c4.2,0,6.9-1.5,8.1-4.5h.2l-.4,6h-15.7v-.2c.4-.3.6-.6.7-1s.2-.9.2-1.5V2.6h0Z"/>
      <path class="st1" d="M145.2,2.6c0-.6,0-1.1-.2-1.5-.1-.4-.4-.7-.7-1h0C144.3,0,150.7,0,150.7,0v.2c-.4.3-.6.6-.7,1-.1.4-.2.9-.2,1.5v20.4c0,.6,0,1.1.2,1.5.1.4.4.7.7,1v.2h-6.4v-.2c.4-.3.6-.6.7-1,.1-.4.2-.9.2-1.5V2.6Z"/>
      <path class="st1" d="M156.1,21c0,1.2.1,2.2.3,2.9s.5,1.2,1,1.5v.2h-4.1v-.2c.5-.3.8-.8,1-1.5s.3-1.7.3-2.9V4.6c0-1.2-.1-2.2-.3-2.9-.2-.7-.5-1.2-1-1.5V0h5.1l12,19.5V4.6c0-1.2-.1-2.2-.3-2.9s-.5-1.2-1-1.5V0h4.1v.2c-.5.3-.8.8-1,1.5s-.3,1.7-.3,2.9v21h-3l-12.8-20.8v16.1h0Z"/>
      <path class="st1" d="M194.6,7.2h-.2c-.4-1.8-1.1-3.2-2.3-4.2s-2.7-1.5-4.4-1.5-2,.2-2.9.6c-.9.4-1.7,1-2.4,1.8s-1.2,1.8-1.6,3-.6,2.7-.6,4.3.2,3.5.7,5c.4,1.5,1.1,2.9,1.9,4,.8,1.1,1.8,2,2.9,2.7s2.4,1,3.7,1,1.6-.1,2.3-.3v-7.4c0-.6,0-1.1-.2-1.5-.1-.4-.4-.7-.7-1v-.2h6.4v.2c-.4.3-.6.6-.7,1-.1.4-.2.9-.2,1.5v10.2h-.2c-.7-1.1-1.6-1.7-2.6-1.7s-.9,0-1.4.3c-.5.2-1,.4-1.5.6s-1.1.4-1.8.6c-.6.2-1.4.3-2.2.3-1.5,0-2.9-.3-4.3-1s-2.5-1.6-3.5-2.8c-1-1.2-1.8-2.6-2.4-4.2s-.9-3.3-.9-5.1.3-3.7,1-5.3c.6-1.6,1.5-3,2.7-4.2,1.1-1.2,2.5-2.1,4-2.8,1.6-.7,3.2-1,5-1s2.3,0,3.5.4c1.2.2,2.3.6,3.2,1.1l-.5,5.7h.2Z"/>
      <path class="st1" d="M14.6,31.9c1.2,0,2.4.2,3.5.5,1.1.3,2.1.8,3.1,1.4l-1.6,5.4h-.2c-.3-1.9-.8-3.3-1.6-4.3-.8-1-1.7-1.5-2.9-1.5s-1.6.3-2.2,1c-.6.7-.8,1.7-.8,3s.2,2.5.8,3.9c.5,1.4,1.3,3,2.3,4.7l2.8-5.1c2,0,3.6.5,4.7,1.3,1.1.9,1.6,2.2,1.6,3.8s-.3,2.4-.9,3.6c-.6,1.2-1.5,2.4-2.7,3.6,1.6,1.5,3.1,2.3,4.5,2.3s2-.5,2.4-1.7h.4c-.1,1.6-.6,2.8-1.4,3.7s-2,1.3-3.5,1.3-1.8-.2-2.8-.6-1.9-1-2.9-1.7c-.8.8-1.7,1.4-2.8,1.8s-2.2.6-3.4.6-2.4-.2-3.5-.6c-1.1-.4-2-.9-2.8-1.5-.8-.7-1.4-1.4-1.8-2.3s-.7-1.8-.7-2.8c0-1.6.6-3.1,1.7-4.3s2.7-2.2,4.7-2.8c-1-2.3-1.5-4.3-1.5-6s.2-1.9.5-2.7.8-1.5,1.5-2.1c.6-.6,1.4-1,2.4-1.3.9-.3,2-.5,3.1-.5h0ZM16.1,55.7c-1.4-1.3-2.8-2.8-4-4.6s-2.2-3.5-3-5.3c-.8.3-1.3.9-1.6,1.6s-.4,1.6-.4,2.7,0,1.9.4,2.8.6,1.6,1.1,2.2,1.1,1.1,1.7,1.5c.7.4,1.4.5,2.3.5,1.3,0,2.5-.4,3.5-1.3h0ZM19.4,52.3c.8-.9,1.4-1.7,1.8-2.5s.6-1.5.6-2.3-.3-1.6-.8-2-1.4-.7-2.4-.7-2.6.5-3.6,1.4c.6,1.1,1.3,2.1,2.1,3.2s1.5,2,2.4,2.9c0,0-.1,0-.1,0Z"/>
      <path class="st1" d="M57.9,55.7c.5,1.2,1,1.9,1.6,2.2v.2h-5.7l-3.9-11.2h-7.6c-.9,3-1.2,5.4-1.1,7.3s.6,3.1,1.7,3.7v.2h-6.1l8.5-24.6-.6-1.7h4.9l8.3,23.9h0ZM49.4,45.4l-3.2-9.5-3.3,9.5h6.5Z"/>
      <path class="st1" d="M62.4,34.5c0-.6,0-1.2-.2-1.5,0-.4-.4-.7-.8-1v-.2h9.3c3.2,0,5.6.6,7.2,1.7,1.6,1.1,2.5,2.7,2.5,4.9s-.6,3.5-1.8,4.8c-1.2,1.3-2.9,2.3-5.1,3l6.1,9.5c.9,1.2,1.6,2,2.2,2.3v.2h-2c-1.5,0-2.7-.2-3.7-.8s-1.8-1.3-2.6-2.5l-5.1-8h-1.4v8.5c0,.6,0,1.2.2,1.5,0,.4.4.7.8,1v.2h-6.6v-.2c.4-.3.6-.6.8-1,0-.4.2-.9.2-1.5v-20.9h0ZM67.4,45.4c2.6,0,4.7-.5,6.1-1.5s2.1-2.5,2.1-4.4-.2-1.8-.5-2.5-.8-1.4-1.4-1.9-1.3-.9-2.2-1.2c-.8-.3-1.8-.4-2.8-.4h-1.7v12h.4Z"/>
      <path class="st1" d="M90.3,33.4c-1.9,0-3.4.3-4.5,1s-2,1.8-2.6,3.2h-.2l.6-5.8h18.1l.6,5.8h-.2c-.6-1.5-1.4-2.5-2.6-3.2s-2.7-1-4.5-1v22c0,.6,0,1.2.2,1.5,0,.4.4.7.8,1v.2h-6.6v-.2c.4-.3.6-.6.8-1,0-.4.2-.9.2-1.5v-22h-.1Z"/>
      <path class="st1" d="M104.2,39c0-1.1.2-2.1.6-3s1-1.6,1.8-2.3,1.7-1.1,2.8-1.4c1.1-.3,2.3-.5,3.6-.5s2.7.2,3.9.5c1.2.3,2.4.8,3.4,1.4l-1.6,5.4h-.2c-.5-1.9-1.3-3.3-2.3-4.3s-2.3-1.5-3.8-1.5-2.4.3-3.1,1c-.8.7-1.2,1.6-1.2,2.7s.3,1.9.9,2.6,1.4,1.3,2.3,1.9,1.9,1.2,3,1.7,2.1,1.2,3,1.9,1.7,1.6,2.3,2.5c.6,1,.9,2.2.9,3.6s-.2,2.2-.6,3.1-1,1.7-1.8,2.3-1.8,1.1-2.9,1.5c-1.1.3-2.4.5-3.9.5s-2.7-.2-4-.5-2.3-.8-3.3-1.4l1.6-5.4h.2c.5,1.9,1.3,3.3,2.3,4.3s2.3,1.5,3.9,1.5,2.5-.4,3.3-1.1c.8-.7,1.2-1.7,1.2-2.9s-.3-2-.9-2.7-1.4-1.4-2.3-2-1.9-1.2-3-1.7-2.1-1.2-3-1.9-1.7-1.5-2.3-2.5c-.6-1-.9-2.2-.9-3.5h0v.2h0Z"/>
      <path class="st1" d="M133.7,34.5c0-.6,0-1.2-.2-1.5-.1-.4-.4-.7-.8-1v-.2h6.6v.2c-.4.3-.6.6-.8,1-.1.4-.2.9-.2,1.5v8.9h8.5v-8.9c0-.6,0-1.2-.2-1.5-.1-.4-.4-.7-.8-1v-.2h6.6v.2c-.4.3-.6.6-.8,1-.1.4-.2.9-.2,1.5v20.9c0,.6,0,1.2.2,1.5.1.4.4.7.8,1v.2h-6.6v-.2c.4-.3.6-.6.8-1,.1-.4.2-.9.2-1.5v-10.4h-8.5v10.4c0,.6,0,1.2.2,1.5.1.4.4.7.8,1v.2h-6.6v-.2c.4-.3.6-.6.8-1,.1-.4.2-.9.2-1.5v-20.9Z"/>
      <path class="st1" d="M155,47c0-1.5.1-3.2.4-5.2.3-2,.7-4.3,1.2-6.8.3-1.6.3-2.6-.2-3v-.2h6.4v.2c-.3.2-.6.6-.8,1.3s-.5,1.5-.7,2.5-.4,2-.5,3.2-.3,2.2-.4,3.3c-.1,1-.2,2-.2,2.8v1.8c0,3.3.6,5.7,2,7.4,1.3,1.7,3,2.5,5.2,2.4h1.4c.6,0,1-.5,1-1.3v-20.8c0-.6,0-1.2-.2-1.5-.1-.4-.4-.7-.8-1v-.2h6.6v.2c-.4.3-.6.6-.8,1-.1.4-.2.9-.2,1.5v20.9c0,.6,0,1.2.2,1.5.1.4.4.7.8,1v.2h-4.5c-1.1,0-2.1,0-2.9.2s-1.7.2-2.6.2c-1.5,0-2.9-.2-4.2-.6s-2.3-1.2-3.1-2.1c-.9-1-1.5-2.2-2-3.6s-.7-3.2-.7-5.1h0s-.4-.2-.4-.2Z"/>
      <path class="st1" d="M178.7,34.5c0-.6,0-1.2-.2-1.5-.1-.4-.4-.7-.8-1v-.2h8.5c3.2,0,5.6.5,7.2,1.6s2.5,2.5,2.5,4.3-.4,2.3-1.1,3.3c-.7,1-1.7,1.8-3,2.4,3.5,1.1,5.2,3.2,5.2,6.4s-.3,2.4-.8,3.4-1.2,1.9-2.2,2.6c-.9.7-2.1,1.3-3.4,1.7-1.3.4-2.8.6-4.5.6h-8.5v-.2c.4-.3.6-.6.8-1,.1-.4.2-.9.2-1.5v-20.9h.1ZM185.6,42.6h2c.6,0,1.2,0,1.8.2,1.1-.8,1.6-2.1,1.6-3.8s-.6-3.2-1.8-4.2-2.9-1.5-5-1.5h-.9v9.2h2.3,0ZM186.3,56.6c1.9,0,3.3-.5,4.4-1.4,1-.9,1.6-2.3,1.6-4s-.2-2-.6-2.9c-.4-.8-.9-1.6-1.6-2.2-.7-.6-1.6-1.1-2.6-1.4-1-.3-2.1-.5-3.3-.5h-.8v12.4h2.9Z"/>
      <g>
        <path class="st0" d="M5.2,67.2c-1.1,0-1.9.2-2.6.6s-1.2,1-1.5,1.8h-.1l.3-3.3h10.4l.3,3.3h-.1c-.3-.8-.8-1.5-1.5-1.8-.7-.4-1.5-.6-2.6-.6v13.5c0,.2.2.4.4.6h-3.8c.2-.3.4-.5.4-.7v-13.5h.4Z"/>
        <path class="st0" d="M14,68.5c0-.4,0-.7-.1-.9,0-.2-.2-.4-.4-.6h0l3.1-.7h0v5.3c.3-.5.8-.8,1.3-1.1.6-.3,1.1-.4,1.8-.4s.9,0,1.3.2.8.4,1,.7.5.6.7,1,.2.8.2,1.3v6.5c0,.4,0,.7.1.9,0,.2.2.4.4.6h-3.8c.2-.3.4-.5.4-.7s.1-.5.1-.9v-6.5c0-.5-.2-1-.5-1.3s-.7-.5-1.3-.5-1.1.2-1.5.6-.6.9-.6,1.5v6.2c0,.4,0,.7.1.9,0,.2.2.4.4.6h-3.8c.2-.3.4-.5.4-.7s.1-.5.1-.9v-11.4h.6v.3Z"/>
        <path class="st0" d="M28,77.1c.3.9.8,1.6,1.4,2.2s1.4.8,2.3.8,1.2,0,1.7-.4.9-.6,1.2-1.1l.3.2c-.4.9-1.1,1.6-1.8,2.1s-1.6.7-2.7.7-1.5,0-2.2-.4-1.3-.7-1.8-1.2-.9-1.1-1.2-1.8c-.3-.7-.4-1.5-.4-2.3s.1-1.6.4-2.3c.3-.7.7-1.3,1.2-1.8s1.1-.9,1.8-1.2c.7-.3,1.4-.4,2.2-.4s1.1,0,1.6.2c.5.2.9.3,1.3.6.4.3.6.6.8.9s.3.7.3,1.1l-6.6,4.1h.2ZM32.1,73.6c-.1-.8-.4-1.4-.7-1.8-.4-.4-.8-.7-1.3-.7s-.7,0-1,.3c-.3.2-.5.4-.8.8-.2.3-.4.7-.5,1.2s-.2.9-.2,1.5,0,1,.1,1.4l4.3-2.6h0Z"/>
        <path class="st0" d="M41.6,78.8c0-.5,0-1,.4-1.4s.7-.8,1.3-1.2c.6-.3,1.2-.7,2-.9.8-.3,1.7-.5,2.7-.7v-1.3c0-.7-.2-1.3-.5-1.8-.3-.4-.8-.7-1.4-.7s-1.3.3-1.8.9-.9,1.4-1.1,2.4h0l-.5-2.9c.4-.4.9-.8,1.5-1s1.4-.3,2.2-.3,1.2,0,1.8.2c.5.2,1,.4,1.4.7.4.3.7.6.9,1s.3.8.3,1.3v7.3c0,.2.2.4.4.6h-5.8c-.5,0-1.2,0-1.7-.2s-.9-.3-1.2-.6-.6-.6-.7-.9-.2-.7-.2-1.1h0v.6ZM48,75.5c-1.3.3-2.2.7-2.7,1.2-.6.5-.8,1.1-.8,1.7s0,.6.2.8.2.5.4.7.4.3.7.5.6.2.9,0h.8c.4,0,.6-.3.6-.7v-4.3h-.1Z"/>
        <path class="st0" d="M53.3,72.5v-.9c0-.2-.2-.4-.4-.6h0l3.1-.7h0v1.3c.3-.4.7-.8,1.2-1.1.5-.3,1-.4,1.6-.4s.8,0,1.1.2c.3,0,.6.3.7.6l-.9,3.1h0c0-.8-.3-1.4-.6-1.8s-.7-.6-1.2-.6-.9.2-1.3.6-.5.9-.5,1.5v7.1c0,.2.2.4.4.6h-3.8c.2-.3.4-.5.4-.7v-8.3h.2Z"/>
        <path class="st0" d="M65.2,81.6c-.8,0-1.4-.2-1.8-.7-.5-.5-.7-1.1-.7-1.9v-8h-1.1v-.7h1.1l2.4-2.1h.2v2.1h2v.7h-2v8c0,.4,0,.7.3,1s.4.4.7.4.5,0,.7-.3c.2-.2.3-.5.4-.9h.2c0,.7-.3,1.3-.7,1.8-.5.4-1,.7-1.8.7h.1Z"/>
        <path class="st0" d="M74.4,75.9c0-.8,0-1.6.4-2.3.3-.7.7-1.3,1.2-1.8s1.1-.9,1.8-1.2,1.5-.4,2.3-.4,1.6,0,2.3.4,1.3.7,1.8,1.2.9,1.1,1.2,1.8c.3.7.4,1.5.4,2.3s0,1.6-.4,2.3c-.3.7-.7,1.3-1.2,1.8s-1.1.9-1.8,1.2c-.7.3-1.5.4-2.3.4s-1.6,0-2.3-.4c-.7-.3-1.3-.7-1.8-1.2s-.9-1.1-1.2-1.8c-.3-.7-.4-1.5-.4-2.3ZM77.2,74.8c0,.8,0,1.5.3,2.2.2.7.4,1.3.7,1.9s.7,1,1.1,1.3.9.5,1.4.5,1.3-.3,1.7-.9c.4-.6.6-1.6.6-2.8s0-1.5-.3-2.2c-.2-.7-.4-1.3-.7-1.9s-.7-1-1.1-1.3-.9-.5-1.4-.5-1.3.3-1.7.9c-.4.6-.6,1.6-.6,2.8Z"/>
        <path class="st0" d="M92.1,67c-.2,0-.4,0-.5.2s-.3.3-.5.6c0,.3-.2.6-.3,1s0,.9,0,1.5h2.1v.7h-2.1v9.8c0,.2.2.4.4.6h-3.8c.2-.3.4-.5.4-.7v-9.8h-1.1v-.7h1.1c0-.6,0-1.2.3-1.7s.5-.9.9-1.3.8-.7,1.3-.9c.5-.2,1-.3,1.6-.3s1.1,0,1.6.3c.5.2,1,.5,1.4.8l-1.4,2.2h0c-.2-1.6-.7-2.4-1.5-2.4h0Z"/>
        <path class="st0" d="M102.4,68.5v-.9c0-.2-.2-.4-.4-.6h0l3.1-.7h0v5.1c.3-.4.7-.7,1.2-.9.5-.2,1-.3,1.6-.3s1.3.2,1.8.4c.6.3,1,.7,1.5,1.2s.7,1.1,1,1.8c.2.7.4,1.4.4,2.2s0,1.6-.4,2.3c-.2.7-.5,1.3-1,1.9-.4.5-.9.9-1.4,1.2s-1.1.4-1.8.4-1.2-.2-1.7-.5-.9-.8-1.2-1.4c0,.5-.2.9-.5,1.2-.3.3-.6.4-1.1.4h-1.7c.2-.3.4-.5.4-.7v-12.3h0s.2.2.2.2ZM105.1,77.6c0,.4.2.8.3,1.2.2.4.4.7.6,1s.5.5.8.7.6.2.9.2c.6,0,1.1-.3,1.5-1,.4-.6.5-1.5.5-2.7s0-1.5-.2-2.2-.4-1.2-.7-1.7c-.3-.5-.6-.9-1-1.1s-.8-.4-1.2-.4-.9.2-1.1.6c-.3.4-.4.9-.4,1.6v3.8h0Z"/>
        <path class="st0" d="M116.7,77.1c.3.9.8,1.6,1.4,2.2.6.5,1.4.8,2.3.8s1.2,0,1.7-.4.9-.6,1.2-1.1l.3.2c-.4.9-1,1.6-1.8,2.1s-1.6.7-2.7.7-1.5,0-2.2-.4-1.3-.7-1.8-1.2-.9-1.1-1.2-1.8c-.3-.7-.4-1.5-.4-2.3s0-1.6.4-2.3c.3-.7.7-1.3,1.2-1.8s1.1-.9,1.8-1.2c.7-.3,1.4-.4,2.2-.4s1.1,0,1.6.2.9.3,1.3.6c.4.3.6.6.8.9s.3.7.3,1.1l-6.6,4.1h.2,0ZM120.7,73.6c0-.8-.4-1.4-.7-1.8-.4-.4-.8-.7-1.3-.7s-.7,0-1,.3c-.3.2-.5.4-.8.8-.2.3-.4.7-.5,1.2s-.2.9-.2,1.5v1.4l4.3-2.6h.2Z"/>
        <path class="st0" d="M125.5,72.5v-.9c0-.2-.2-.4-.4-.6h0l3.1-.7h0v9.6c0,.4,0,.7.1.9,0,.2.2.4.4.6h-3.8c.2-.3.4-.5.4-.7v-8.3h.2ZM125.3,68.1c0-.4,0-.8.4-1.1s.6-.4,1.1-.4.8,0,1.1.4.4.6.4,1.1-.1.8-.4,1.1-.6.4-1.1.4-.8,0-1.1-.4-.4-.7-.4-1.1Z"/>
        <path class="st0" d="M130.8,72.5c0-.4,0-.7-.1-.9s-.2-.4-.4-.6h0l3.1-.7h0v1.3c.3-.5.8-.8,1.3-1.1.5-.3,1.1-.4,1.8-.4s.9,0,1.3.2.8.4,1,.7.5.6.7,1,.2.8.2,1.3v6.5c0,.4,0,.7.1.9,0,.2.2.4.4.6h-3.8c.2-.3.4-.5.4-.7s.1-.5.1-.9v-6.5c0-.5-.2-1-.5-1.3s-.7-.5-1.3-.5-1.1.2-1.5.6-.5.9-.5,1.5v6.2c0,.4,0,.7.1.9,0,.2.2.4.4.6h-3.8c.2-.3.4-.5.4-.7s.1-.5.1-.9v-7.4h.5v.3Z"/>
        <path class="st0" d="M141.8,74.7c0-.7.1-1.2.4-1.8.3-.6.6-1,1.1-1.4s1-.7,1.6-.9c.6-.2,1.3-.3,2-.3s1.8.2,2.5.6c.2-.7.4-1.3.8-1.8.4-.5.8-.8,1.2-.9l.4,2.2c-.9,0-1.5.3-1.8.9.6.4,1.1.9,1.4,1.6s.5,1.3.5,2.1-.1,1.2-.4,1.8c-.3.6-.6,1-1.1,1.4s-1,.7-1.6.9c-.6.2-1.3.3-2,.3s-1.6-.2-2.4-.5c-.4.3-.7.6-.9.9s-.3.6-.3.9c0,.6.4.8,1.3.8s.9,0,1.3-.2c.4,0,.8-.3,1.3-.4s.9-.3,1.3-.4c.4,0,.9-.2,1.3-.2,1.5,0,2.2.8,2.2,2.3s-.2,1.6-.6,2.3h-.1c0-1.2-.6-1.8-1.8-1.8h-1.3c-.5,0-.9.2-1.4.3-.5,0-.9.2-1.4.3h-1.3c-.8,0-1.4-.2-1.8-.6-.4-.4-.6-1-.6-1.6s.2-1.2.5-1.8c.4-.6.9-1.1,1.5-1.5-.6-.4-1.1-.9-1.5-1.6-.4-.6-.5-1.3-.5-2.1h.2v.2ZM144.6,73.9c0,.6,0,1.1.2,1.7s.3,1,.6,1.4c.2.4.5.7.9,1s.7.4,1.1.4,1-.2,1.3-.7.5-1.2.5-2.1,0-1.2-.2-1.7-.3-1-.6-1.4c-.2-.4-.5-.7-.9-.9s-.7-.3-1.1-.3-1,.2-1.3.7-.5,1.2-.5,2.1h0v-.2Z"/>
        <path class="st0" d="M159.4,71.7c-.2-.3-.3-.6-.5-.8-.1-.2-.3-.3-.5-.4h3.3l3.6,9,1.4-3.6-1.2-3.2,1.1-2.3h.9l3.6,9,1.6-3.9c.5-1.3.7-2.4.6-3.3,0-.9-.4-1.5-.9-1.7h3.3l-4.1,10.2.3.8h-2.9l-1.8-4.5-1.4,3.6.3.8h-2.9l-3.9-9.7h0v.2-.2Z"/>
        <path class="st0" d="M179,77.1c.3.9.8,1.6,1.4,2.2.6.5,1.4.8,2.3.8s1.2,0,1.7-.4.9-.6,1.2-1.1l.3.2c-.4.9-1,1.6-1.8,2.1s-1.6.7-2.7.7-1.5,0-2.2-.4-1.3-.7-1.8-1.2-.9-1.1-1.2-1.8c-.3-.7-.4-1.5-.4-2.3s.1-1.6.4-2.3c.3-.7.7-1.3,1.2-1.8s1.1-.9,1.8-1.2c.7-.3,1.4-.4,2.2-.4s1.1,0,1.6.2.9.3,1.3.6c.4.3.6.6.8.9s.3.7.3,1.1l-6.6,4.1h.2ZM183.1,73.6c-.1-.8-.4-1.4-.7-1.8-.4-.4-.8-.7-1.3-.7s-.7,0-1,.3c-.3.2-.5.4-.8.8-.2.3-.4.7-.5,1.2s-.2.9-.2,1.5,0,1,.1,1.4l4.3-2.6h0Z"/>
        <path class="st0" d="M187.8,68.5c0-.4,0-.7-.1-.9,0-.2-.2-.4-.4-.6h0l3.1-.7h0v13.6c0,.4,0,.7.1.9,0,.2.2.4.4.6h-3.8c.2-.3.4-.5.4-.7s.1-.5.1-.9v-11.4h.2Z"/>
        <path class="st0" d="M193.1,68.5c0-.4,0-.7-.1-.9,0-.2-.2-.4-.4-.6h0l3.1-.7h0v13.6c0,.4,0,.7.1.9,0,.2.2.4.4.6h-3.8c.2-.3.4-.5.4-.7s.1-.5.1-.9v-11.4h.2Z"/>
      </g>
    </g>
  </g>
</svg>