<?xml version="1.0" encoding="UTF-8"?>
<svg id="Layer_2" data-name="Layer 2" xmlns="http://www.w3.org/2000/svg" viewBox="0 0 191.58 367.58">
  <defs>
    <style>
      .cls-1 {
        fill: #1d1611;
      }
    </style>
  </defs>
  <g id="Layer_1-2" data-name="Layer 1">
    <path class="cls-1" d="M187.1,63.3c-2.37-8.46-5.96-16.53-8.46-24.85-1.4-4.65-1.89-5.35-.2-10.13.76-2.16,3-5.74,3.39-7.62.26-1.29-.07-2.46.38-3.75.4-1.12,3.72-6.46,4.58-7.81.51-.8,2.66-3.23,2.76-3.59.11-.39-.05-.73-.2-1.07l-1.63.09-3.83,3.45c-.24-1.33,1.45-7.23.57-7.86-.77-.56-1.83.52-2.15,1.19-1.82,3.93-1.2,9.17-4.34,12.45l-3.44-4.53c-1-.83-1.63-2.33-3.14-2.07-2.22.38.7,3.46,1.27,4.5.49.89,2.03,3.71,2.11,4.52.11,1.11-3.38,4.26-4.24,2.54-.49-.98,2.49-6.71-.81-6.91-2.18-.13-1.86,2.1-2.14,3.39-.88,4.09-2.74,9.05-1.66,13.1.34,1.27,1.09,2.18,1.43,3.25,3.92,12.13,4.52,27.93,6.12,40.68.46,3.67,2.01,9.19,1.58,12.67-.33,2.73-3.66,6.19-5.21,8.56-3.66,5.6-6.41,11.43-11,16.26-1.91,2-4.27,3.9-6.2,5.91-.01-.81-.69-.86-.99-1.48-1.26-2.58-1.67-5.5-2.47-8.22-.32-1.1-.33-1.89-.61-3.3-.86-4.39-2.21-10.68-3.58-14.86-2.48-7.55-6.27-10.8-12.66-14.89-2.25-1.45-3.11-.63-5.26-.75-.14,0-1.47-.69-2.44-1.07-.05-.01-.11-.02-.16-.03-2.09-.12-4.18,0-6.28.04-1.15.28-2.3.34-3.41.53-.69.35-1.34.84-2.01,1.22-.28.25-.58.48-.88.76-.18.17-.34.35-.5.55,0,.02-.01.03-.02.05-.38.85-.8,1.68-1.3,2.47-.68,2.23-3.65,4.43-4.02,5.88-.55,2.16.05,5.01-1.71,6.83-1.19,1.22-2.75,1.49-2.48,3.83.32,2.8-.71,3.52-.85,6.09-.02.46-.02,2.61.01,3.01.04.53.74.97.83,1.93.21,2.02-1.04,3.28.42,5.35,1.3,1.85,3.91,2.02,5.72,3.17.26.04.48.14.65.28.16.07.29.16.39.28.11.09.2.2.28.32.17.21.28.49.27.85-.01.59-.06,1.17-.13,1.75.01,1.2-.14,2.37-.39,3.63-.23,1.16-.52,2.38-1.43,3.15v.08s-.02-.04-.02-.07c-.13.11-.27.21-.43.3-.07.04-.14.07-.21.1-.13.1-.27.19-.42.25-.07.1-.14.18-.21.23-1.06.79-1.21-.51-1.95-.74-.21-.07-2.21-.36-2.43-.35-.67.02-1.02.62-1.62.58-.57-.04-1.31-.97-2.01-1.06-.64-.08-1.33.37-2.13.22-.58-.1-.76-.66-1.16-.77-5.28-1.58-11.97-1.48-17.5-2.88-1.7-.43-1.85-.31-3.3-.53-3.05-.47-8.14-3.02-11.35-4.09-1.26-.42-3.19-.61-4.2-1.03-1.81-.75-2.42-3.96-3.18-5.63-4.37-9.5-8.81-19.65-13.44-28.96-2.09-4.21-5.5-8.44-6.93-12.9-1.26-3.94-.67-5.7-4.35-8.59-1.59-1.25-3.99-2.01-5.35-3.18-1.3-1.13-2.72-4.97-4.92-3.55-1.6,1.03.13,3.26.94,4.25.38.46,1.08.24.82,1.23-2.71.26-5.42-1.49-7.41-3.19-1.9-1.63-2.08-2.62-2.75-4.96-.55-1.91-.33-5.87-3.34-4.06l.56,8.63c-.48.13-.55-.2-.83-.41-1.59-1.22-4.69-5.5-6.49-5.64-.41-.03-.81.17-1.19.29-.66.97,2.92,3.67,2.45,4.1-1.25-.49-3.82-1.37-3.17.84,2.81,1.39,5.1,3.58,7.77,5.17,3.19,1.89,6.52,3.55,9.63,5.51,3.27,2.06,7.89,4.45,9.59,8.03,2.08,4.37,1.99,14.21,1.79,19.16-.63,15.94-3.28,32.1-3.6,48.16-.03,1.36-.23,5.37.32,6.31.87,1.51,4.96,2.73,6.45,4.29,1.74,1.81,1.12,4.01,1.57,6.14.75,3.55,6.94,6.02,9.59,8.58,2.34,2.26,3.3,4.66,4.99,7.12,4.07,5.91,9.24,10.52,15.01,14.73,9.81,7.16,20.86,12.87,31.86,17.97l.41.43c-.34,2.76-1.86,5.17-2.59,7.8-.82,2.95-.82,6.65-1.64,9.37-.43,1.41-1.73,3.1-2.28,4.6-1.21,3.29-.74,4.82-2.98,8.03-1.12,1.61-3.17,3.24-3.71,5.1-.53,1.85-.56,4.27-1.15,6.29-.25.84-2.18,2.71-2.63,3.97-.4,1.1-.24,2-.52,3.06-2.02,7.51-6.19,14.31-7.94,22.62-1.78,8.47-.78,13.37-.4,21.6.67,14.13-.94,29.17.3,43.2.05.59.2,1.89.36,2.39.66,2.07,5.05,2.69,6.89,3.02.34.06.93.13.42.54-1.57.14-3.07.75-4.62,1.03-2.42.43-7.33.37-9.22,1.24-.65.3-.64.82-1.05,1.16-.74.61-1.65,1.7-1.81,1.83-.68.51-2.19.15-2.23,1.82-.01.48.43.84.42,1.05-.03.44-1.25.48-.42,2.13,1.11,2.19,4.09,3.09,6.4,2.95,1.89-.12,3-.24,4.95-.26,5.97-.06,8.27-2.19,13.58-3.23,3.66-.72,7.9.74,11.13-.7,4.21-1.88,2.08-7.21,2.17-10.64,2.78-.66,5.51-2.02,7.93-3.49,2.46-1.49,4.53-2.32,4.44-5.5-.08-2.97-.73-6.07-.85-9.06-.27-6.68.31-13.44.02-20.12-.17-3.83-1-7.74-1.11-11.55-.1-3.72,1.56-6.85,2.98-10.23,2.92-6.99,6.37-13.8,9.41-20.74.5,0,.29,1.18.27,1.51-1.16,15.57-3.17,31.14-3.59,46.79-.03,1.15-.14,3.03.07,4.08.29,1.42,2.27,3.26,2.43,4.45.23,1.75-.21,3.99,0,5.81l-.85,12.06c2.9,1.55,4.23,1.43,5.52,4.72.07.18.14.36.2.54.16.15.29.36.36.64.9,3.41,2.49,6.54,3.94,9.74h.14c.78,1.99,1.74,3.89,2.52,5.88.9,2.27.86,2.06,2.03,4.03,1.27,2.16,1.83,4.56,5.01,4.91,2,.22,1.98-.85,2.78-1.04.95-.22,2.37.96,3.67-.45.17-.19,1.55-1.85,1.62-1.96.3-.48.17-1.09.37-1.41.71-1.14.7.15,1.31-2.36.06-.22.48-.18.53-.38.27-1.08-1.05-4.4-1.69-5.41-1.14-1.8-3.75-4.06-5.18-5.83-.26-.33-1.44-1.72-1.11-2.06,2.29.34,5.05,2.12,7.29,1.93,2.38-.2,2.88-2.22,5.08-2.63,1.93-.36,10.07.17,11.05-1.41.63-1.02-.23-2.57,1.26-3.63,2.06-1.47,3.97-.36,6.21-.95,2.38-.62,2.2-1.32,2.42-3.64.24-2.54-.96-4.08,2.63-4.27,2.14-.11,4.12.39,6.58-.01,2.62-.42.42-5.31.98-7.27l-2.62-26.29c1.54-1.16,3.65-2.75,3.7-4.85.14-5.25-.84-11.65-1.09-17.03-.8-17.46-.49-36.66-3.09-53.9-.5-3.31-4.42-19.57-3.99-21.2.12-.45.63-.75.75-1.46.5-3.02-1.86-9.48-2.6-12.79-1.93-8.62-3.93-17.25-5.78-25.88-1.18-5.52-3.29-11.44-1.49-16.92.82-2.49,1.95-5.86,3.05-8.24,2.09-4.52,9-13.44,10.02-17.23,1.5-5.6,4-10.14,5.83-15.65,1.66-5,2.49-9.92,3.79-14.93.38-1.45,1.34-2.85,1.49-4.29.37-3.67-3.27-16.6-4.45-20.82ZM97.7,187.35c-.04,1.21-1.4,3.12-1.1,4.57-.79-.03-1.96-.14-3.32-.51-8.39-2.24-12.16-10.99-16.21-17.64-6.43-10.55-9.28-8.77-18.23-20.19-5.26-6.71-12.06-17.25-17.13-32.98,5.59,6.25,10.88,11.77,17.92,16.49,4.91,3.3,10.08,6.18,15.5,8.18,2.94,1.09,8.19,3.24,10.56,5.13,4.11,3.3,6.44,14.08,8.67,19.14.59,1.33,1.9,2.51,2.27,3.51.55,1.45.23,4.01.67,5.94.43,1.89,1.38,2.9,1.76,4.64-.73.25-1.66.83-1.84,1.63-.2.89.51,1.29.49,2.1Z"/>
  </g>
</svg>