<svg xmlns="http://www.w3.org/2000/svg" xmlns:xlink="http://www.w3.org/1999/xlink" width="500" zoomAndPan="magnify" viewBox="0 0 375 374.999991" height="500" preserveAspectRatio="xMidYMid meet" version="1.2"><defs><clipPath id="f6e5c0556d"><path d="M 27 21.605469 L 348 21.605469 L 348 362 L 27 362 Z M 27 21.605469 "/></clipPath></defs><g id="b1b43db5ee"><g clip-rule="nonzero" clip-path="url(#f6e5c0556d)"><path style=" stroke:none;fill-rule:evenodd;fill:#000000;fill-opacity:1;" d="M 281.34375 143.035156 C 288.761719 153.695312 289.109375 164.574219 287.15625 176.910156 C 286.855469 180.042969 285.683594 183.269531 284.121094 186.066406 C 284.035156 186.875 284.164062 187.757812 283.6875 188.410156 C 283.558594 188.625 283.46875 188.855469 283.601562 189.15625 C 283.816406 189.589844 283.425781 189.761719 283.425781 190.105469 C 283.644531 190.480469 283.515625 190.75 283.46875 191.085938 C 284.207031 190.925781 285.117188 190.984375 285.988281 191.101562 C 288.285156 190.621094 290.195312 188.816406 291.839844 187.21875 C 298.996094 180.175781 300.429688 169.042969 299.820312 159.410156 C 298.824219 148.996094 293.488281 139.664062 286.808594 131.84375 C 279.828125 123.238281 277.832031 111.132812 279.785156 100.421875 C 281.128906 94.707031 281.691406 88.851562 283.644531 83.289062 C 283.6875 82.746094 283.253906 83.207031 282.949219 83.199219 C 282.597656 82.753906 282.789062 82.492188 282.34375 82.679688 C 282.472656 82.21875 282.777344 81.914062 282.691406 81.394531 C 280.695312 81.527344 279.828125 83.382812 278.742188 84.761719 C 278.570312 85.09375 277.960938 84.941406 277.875 85.339844 C 277.226562 87.074219 276.140625 88.480469 275.144531 89.996094 C 267.164062 103.027344 268.289062 120.363281 274.796875 133.933594 C 276.53125 137.242188 279.003906 140.148438 281.34375 143.035156 Z M 318.339844 143.035156 C 325.800781 153.695312 326.148438 164.574219 324.195312 176.910156 C 323.894531 180.042969 322.722656 183.269531 321.160156 186.066406 C 321.074219 186.875 321.203125 187.757812 320.726562 188.410156 C 320.597656 188.625 320.507812 188.855469 320.640625 189.15625 C 320.8125 189.589844 320.421875 189.761719 320.464844 190.105469 C 320.640625 190.480469 320.554688 190.75 320.507812 191.085938 C 321.246094 190.925781 322.15625 190.984375 323.027344 191.101562 C 325.324219 190.621094 327.230469 188.816406 328.878906 187.21875 C 336.035156 180.175781 337.46875 169.042969 336.859375 159.410156 C 335.863281 148.996094 330.484375 139.664062 323.804688 131.84375 C 316.867188 123.238281 314.828125 111.132812 316.824219 100.421875 C 318.167969 94.707031 318.730469 88.851562 320.683594 83.289062 C 320.726562 82.746094 320.292969 83.207031 319.988281 83.199219 C 319.671875 82.796875 319.777344 82.472656 319.378906 82.679688 C 319.46875 82.21875 319.816406 81.914062 319.683594 81.394531 C 317.6875 81.527344 316.863281 83.382812 315.78125 84.761719 C 315.605469 85.09375 314.957031 84.941406 314.914062 85.339844 C 314.261719 87.074219 313.179688 88.480469 312.136719 89.996094 C 304.199219 103.027344 305.328125 120.363281 311.835938 133.933594 C 313.570312 137.242188 316.042969 140.148438 318.339844 143.035156 Z M 50.222656 143.035156 C 57.640625 153.695312 57.988281 164.574219 56.035156 176.910156 C 55.730469 180.042969 54.5625 183.269531 53 186.066406 C 52.914062 186.875 53.042969 187.757812 52.566406 188.410156 C 52.433594 188.625 52.347656 188.855469 52.480469 189.15625 C 52.652344 189.589844 52.261719 189.761719 52.304688 190.105469 C 52.480469 190.480469 52.390625 190.75 52.347656 191.085938 C 53.085938 190.925781 53.996094 190.984375 54.863281 191.101562 C 57.164062 190.621094 59.070312 188.816406 60.71875 187.21875 C 67.875 180.167969 69.308594 169.042969 68.699219 159.410156 C 67.703125 148.996094 62.324219 139.664062 55.644531 131.84375 C 48.707031 123.238281 46.667969 111.132812 48.664062 100.421875 C 50.007812 94.707031 50.570312 88.851562 52.523438 83.289062 C 52.566406 82.746094 52.132812 83.207031 51.828125 83.199219 C 51.511719 82.796875 51.617188 82.472656 51.222656 82.679688 C 51.308594 82.21875 51.65625 81.914062 51.523438 81.394531 C 49.527344 81.527344 48.703125 83.382812 47.621094 84.761719 C 47.449219 85.09375 46.839844 84.941406 46.753906 85.339844 C 46.101562 87.074219 45.019531 88.480469 44.019531 89.996094 C 36 103.027344 37.167969 120.363281 43.675781 133.933594 C 45.410156 137.242188 47.882812 140.148438 50.222656 143.035156 Z M 87.21875 143.035156 C 94.679688 153.695312 95.023438 164.574219 93.074219 176.910156 C 92.769531 180.042969 91.554688 183.269531 90.039062 186.066406 C 89.90625 186.875 90.082031 187.757812 89.558594 188.410156 C 89.472656 188.625 89.386719 188.855469 89.472656 189.15625 C 89.691406 189.589844 89.300781 189.761719 89.34375 190.105469 C 89.515625 190.480469 89.429688 190.75 89.386719 191.085938 C 90.082031 190.925781 91.035156 190.984375 91.902344 191.101562 C 94.203125 190.621094 96.109375 188.816406 97.757812 187.21875 C 104.914062 180.175781 106.34375 169.042969 105.738281 159.410156 C 104.742188 148.996094 99.363281 139.664062 92.683594 131.84375 C 85.742188 123.238281 83.707031 111.132812 85.699219 100.421875 C 87.046875 94.707031 87.609375 88.851562 89.558594 83.289062 C 89.605469 82.746094 89.167969 83.207031 88.867188 83.199219 C 88.535156 82.78125 88.648438 82.476562 88.257812 82.679688 C 88.34375 82.21875 88.648438 81.914062 88.5625 81.394531 C 86.566406 81.527344 85.742188 83.382812 84.660156 84.761719 C 84.484375 85.09375 83.835938 84.941406 83.75 85.339844 C 83.140625 87.074219 82.058594 88.480469 81.015625 89.996094 C 73.035156 103.027344 74.207031 120.363281 80.714844 133.933594 C 82.449219 137.242188 84.875 140.148438 87.21875 143.035156 Z M 332.132812 309.726562 C 323.199219 305.933594 313.699219 303.71875 304.332031 301.085938 C 300.863281 299.835938 297.132812 299.203125 293.707031 297.9375 C 290.582031 303.621094 286.984375 309.011719 282.90625 314.003906 C 267.988281 331.636719 248.425781 346.089844 226.527344 353.621094 C 238.582031 353.136719 250.8125 352.578125 262.609375 350.238281 C 289.5 345.011719 315.175781 331.402344 332.132812 309.726562 Z M 277.136719 250.875 C 263.953125 253.804688 251.160156 258.996094 240.445312 267.203125 C 235.417969 270.550781 230.253906 274.125 226.003906 278.460938 C 223.53125 258.371094 213.382812 239.757812 198.898438 225.742188 C 196.558594 223.347656 193.128906 220.75 190.570312 218.519531 C 187.839844 216.035156 184.28125 217.828125 182.113281 220.128906 C 170.144531 230.320312 160.820312 243.6875 155.136719 258.34375 C 152.320312 265.714844 150.539062 273.578125 149.890625 281.542969 C 139.523438 265.058594 115.539062 255.1875 97.890625 250.613281 C 95.9375 250.148438 93.898438 249.746094 91.902344 249.386719 C 98.367188 242.5625 106 236.347656 115.324219 233.765625 C 132.757812 229.449219 164.027344 215.589844 161.773438 194.117188 C 161.6875 192.953125 161.601562 191.773438 161.46875 190.597656 C 167.410156 194.34375 173.527344 198.320312 179.644531 201.730469 C 187.710938 206.339844 195.992188 200.625 202.890625 196.53125 C 206.273438 194.355469 209.742188 192.410156 213.210938 190.484375 C 212.953125 192.746094 212.429688 195.023438 212.777344 197.285156 C 214.730469 211.148438 229.476562 222.25 241.578125 227.714844 C 247.777344 230.171875 254.152344 232.40625 260.574219 234.386719 C 266.601562 236.71875 271.980469 240.390625 276.878906 244.449219 C 279.265625 245.710938 281.261719 247.667969 282.910156 249.847656 C 280.523438 250.324219 278.484375 250.746094 277.136719 250.875 Z M 149.628906 286.542969 C 142.863281 282.929688 136.660156 278.113281 129.808594 274.414062 C 114.28125 267.492188 97.886719 261.292969 80.800781 259.832031 C 84.054688 286.558594 100.578125 310.472656 121.089844 327.363281 C 134.667969 337.871094 150.324219 345.40625 166.71875 350.214844 C 168.710938 350.625 170.621094 351.539062 172.703125 351.648438 C 174.351562 351.765625 176 351.804688 177.472656 352.59375 C 179.164062 352.921875 180.941406 352.964844 182.675781 353.171875 C 176.589844 348.695312 172.230469 344.738281 167.972656 340.058594 C 155.136719 325.53125 149.152344 305.925781 149.628906 286.542969 Z M 185.625 353.234375 C 185.757812 353.464844 186.105469 353.945312 185.582031 353.753906 C 186.0625 353.90625 186.496094 354.097656 186.972656 354.324219 C 186.539062 354.007812 186.101562 353.5 185.625 353.234375 Z M 146.722656 352.257812 C 137.484375 352.246094 128.246094 351.863281 119.054688 350.621094 C 90.082031 346.117188 60.894531 332.667969 42.15625 309.683594 C 50.09375 306.378906 58.378906 303.789062 66.53125 301.347656 C 71.777344 300.25 77.15625 299.816406 82.230469 298.402344 C 96.195312 322.234375 120.179688 343.195312 146.722656 352.257812 Z M 240.75 125.128906 C 244.003906 111.449219 242.832031 96.574219 236.71875 83.988281 C 232.554688 75.492188 226.480469 68.066406 219.5 61.828125 C 217.632812 60.164062 215.769531 58.441406 213.339844 57.578125 C 212.777344 57.449219 212.863281 56.734375 212.386719 56.523438 C 212.386719 56.515625 212.386719 56.507812 212.34375 56.5 C 211.476562 66.746094 207.617188 75.332031 201.675781 82.371094 C 206.878906 85.246094 211.691406 89.085938 217.332031 91.15625 C 230.515625 97.066406 236.066406 111.3125 240.75 125.128906 Z M 200.9375 54.917969 C 168.886719 48.546875 136.707031 69.304688 131.632812 102.566406 C 130.542969 111.828125 130.222656 108.972656 130.808594 118.917969 C 131.152344 123.746094 132.28125 128.449219 133.886719 132.960938 C 134.449219 129.707031 135.273438 126.550781 136.617188 123.40625 C 141.390625 110.816406 150.191406 99.277344 162.425781 93.179688 C 181.855469 85.574219 198.855469 76.609375 200.9375 54.917969 Z M 166.933594 46.742188 C 176.214844 43.367188 186.191406 41.941406 195.949219 42.828125 C 199.15625 43.148438 202.453125 43.476562 205.578125 44.328125 C 206.140625 44.417969 206.75 44.546875 207.355469 44.703125 C 207.226562 44.164062 207.097656 43.648438 206.921875 43.210938 C 203.019531 32.710938 200.371094 33.273438 190.050781 33.382812 C 187.316406 33.265625 184.542969 33.691406 181.765625 33.617188 C 177.863281 33.292969 173.308594 32.65625 170.621094 36.140625 C 169.1875 37.757812 168.320312 39.851562 168.234375 42.023438 C 168.277344 42.332031 168.234375 42.621094 167.84375 42.867188 C 167.542969 43.195312 167.714844 43.71875 167.453125 44.121094 C 167.453125 45.015625 167.195312 45.878906 166.933594 46.742188 Z M 340.589844 318.023438 C 332.914062 327.453125 323.632812 335.492188 313.355469 341.863281 C 288.199219 358.5 243.398438 367.328125 214.25 357.03125 C 212.691406 357.363281 211.128906 357.664062 209.609375 357.925781 C 205.664062 358.054688 201.71875 359.761719 197.902344 359.324219 C 194.429688 359.425781 190.65625 360.40625 187.363281 358.84375 C 188.097656 358.398438 189.007812 358.4375 189.878906 358.210938 C 189.097656 358.042969 189.503906 358.011719 189.921875 357.417969 C 189.660156 357.140625 189.140625 357.304688 188.835938 357.113281 C 209.089844 351.875 230.039062 344.769531 247.558594 332.644531 C 271.71875 315.992188 290.886719 289.816406 293.707031 260.203125 C 280.042969 261.503906 266.597656 265.078125 254.152344 270.839844 C 247.90625 273.824219 241.703125 276.875 235.546875 279.921875 C 232.554688 281.496094 229.605469 283.265625 226.523438 284.722656 C 227.523438 307.566406 219.714844 331.480469 202.410156 346.871094 C 198.855469 349.90625 195.210938 353.054688 190.832031 354.878906 C 190.179688 354.6875 189.398438 355.160156 188.664062 355.222656 C 187.925781 355.222656 187.96875 355.207031 187.273438 355.59375 C 192.304688 347.054688 199.160156 340.730469 204.1875 331.84375 C 222.707031 297.09375 216.898438 256.339844 187.40625 230.4375 C 173.917969 242.808594 163.507812 258.804688 160.253906 276.984375 C 156.308594 300.207031 163.289062 326.699219 179.335938 344.039062 C 182.027344 348.933594 185.496094 349.097656 187.273438 354.503906 C 187.316406 354.515625 187.316406 354.523438 187.359375 354.535156 C 186.839844 354.777344 186.277344 354.8125 185.757812 354.847656 C 185.6875 355.0625 185.644531 354.832031 184.84375 354.925781 C 185.191406 355.03125 185.539062 355.214844 185.019531 355.371094 C 184.933594 355.484375 184.84375 355.601562 184.714844 355.714844 C 184.976562 356.011719 185.496094 355.902344 185.800781 356.121094 C 176.519531 357.601562 167.148438 357.226562 157.957031 355.332031 C 144.554688 361.035156 128.898438 361.429688 114.542969 359.453125 C 99.839844 357.875 85.742188 353.039062 72.300781 347.128906 C 57.378906 339.824219 43.242188 330.058594 32.789062 317.003906 C 23.855469 306.953125 25.460938 302.941406 37.992188 298.710938 C 50.007812 294.480469 66.574219 289.671875 79.542969 293.582031 C 78.023438 290.667969 76.636719 287.726562 75.464844 284.753906 C 71.996094 275.851562 69.261719 266.21875 68.699219 256.640625 C 67.527344 249.179688 71.691406 246.953125 78.585938 247.941406 C 81.144531 248.035156 83.703125 248.242188 86.265625 248.550781 C 89.515625 234.40625 104.304688 226.117188 117.445312 222.097656 C 126.945312 218.203125 136.53125 213.800781 144.078125 206.617188 C 147.894531 203.359375 150.886719 199.253906 152.402344 194.453125 L 152.316406 195.460938 C 152.796875 192.476562 153.574219 189.390625 154.875 186.59375 C 149.585938 183.652344 144.164062 180.816406 140.652344 175.730469 C 138.441406 171.449219 137.136719 166.246094 136.226562 161.601562 C 134.925781 158.023438 134.796875 154.078125 133.019531 150.664062 C 132.714844 150.238281 133.234375 149.785156 133.0625 149.351562 C 132.890625 148.097656 132.152344 146.792969 131.933594 145.566406 C 131.628906 144.585938 132.105469 143.550781 131.804688 142.570312 C 131.933594 142.332031 131.976562 142.117188 132.238281 141.933594 C 132.734375 142.457031 132.179688 142.773438 133.148438 144.058594 C 133.148438 143.53125 133.261719 143.769531 133.886719 143.867188 C 134.101562 143.625 133.886719 143.34375 134.015625 143.085938 C 139.4375 150.382812 144.078125 159.402344 147.15625 168.191406 C 147.722656 170.59375 149.28125 172.210938 151.40625 173.488281 C 158.910156 177.9375 167.714844 182.101562 175.21875 186.675781 C 177.777344 188.070312 180.335938 189.460938 182.9375 190.6875 C 184.5 191.660156 186.320312 192.691406 188.230469 191.945312 C 194.996094 188.046875 202.152344 183.101562 209.003906 179.242188 C 213.429688 176.421875 219.847656 173.6875 223.664062 170.269531 C 225.875 167.164062 226.527344 163.054688 228.304688 159.648438 C 230.257812 155.648438 232.859375 149.992188 236.152344 146.015625 C 235.242188 144.667969 234.808594 142.925781 234.203125 141.464844 C 231.339844 133.511719 228.347656 125.515625 225.136719 117.714844 C 222.363281 110.996094 219.371094 104.355469 212.949219 100.347656 C 207.269531 96.8125 201.933594 91.828125 198.117188 86.175781 C 190.441406 93.597656 180.378906 99.042969 169.320312 102.710938 C 155.265625 108.480469 145.769531 121.34375 139.046875 134.484375 C 138.222656 136.273438 137.441406 137.824219 136.3125 139.53125 C 135.664062 139.722656 135.359375 140.402344 134.96875 140.753906 C 134.535156 141.027344 134.625 141 134.578125 141.527344 L 134.40625 139.339844 C 134.363281 139.558594 134.320312 139.773438 134.320312 139.984375 C 134.277344 139.773438 134.1875 139.566406 134.101562 139.363281 C 134.058594 139.386719 133.972656 139.410156 133.929688 139.429688 C 134.96875 143.703125 130.285156 135.019531 129.765625 134.238281 C 128.160156 131.179688 126.601562 127.957031 125.515625 124.65625 C 117.839844 103.164062 126.253906 78.515625 141.777344 62.636719 C 147.375 57.042969 154.007812 52.46875 161.207031 49.105469 C 158.261719 41.378906 159.691406 32.1875 166.371094 26.851562 C 171.75 22.058594 179.335938 22.773438 186.015625 22.242188 C 190.265625 22.277344 194.515625 21.570312 198.769531 21.683594 C 208.394531 22.160156 216.550781 30.816406 216.464844 40.460938 C 216.550781 43.941406 215.25 47.332031 213.773438 50.445312 C 213.515625 50.9375 213.035156 51.28125 212.558594 51.597656 C 212.558594 51.734375 212.558594 51.863281 212.558594 52.003906 C 230.382812 56.207031 243.65625 72.644531 249.554688 89.625 C 253.066406 99.644531 253.71875 110.507812 252.894531 121.015625 C 251.984375 128.09375 250.074219 135.027344 247.167969 141.5625 C 246.128906 144.492188 244.394531 147.699219 241.574219 148.257812 C 240.75 153.117188 238.710938 157.898438 237.929688 162.765625 C 236.5 168.519531 235.546875 175.695312 230.644531 179.625 C 226.785156 182.601562 222.707031 185.097656 218.589844 187.457031 C 219.542969 190.839844 220.453125 194.824219 220.625 195.460938 L 220.539062 194.769531 C 222.621094 201.898438 227.957031 207.1875 234.027344 211.234375 C 242.746094 217.296875 253.242188 219.945312 263.304688 222.898438 C 273.0625 225.847656 289.414062 236.980469 289.933594 248.550781 C 297.871094 247.335938 306.023438 247.28125 305.808594 253.910156 C 305.503906 267.285156 302.121094 280.523438 296.394531 292.640625 C 300.648438 292.28125 305.070312 292.6875 309.320312 293.105469 C 321.378906 293.421875 333.089844 296.835938 343.886719 302.289062 C 351.257812 306.390625 343.84375 313.714844 340.589844 318.023438 Z M 219.757812 130.65625 C 220.148438 130.574219 219.628906 129.792969 220.191406 130.0625 C 220.667969 130.277344 220.585938 129.65625 220.84375 129.5625 C 221.277344 129.449219 222.273438 129.523438 222.363281 130.144531 C 222.449219 130.144531 222.664062 130.199219 222.753906 130.316406 C 222.96875 130.589844 223.488281 130.472656 223.664062 130.707031 C 224.269531 131.671875 224.398438 132.707031 224.703125 133.769531 C 225.441406 136.054688 223.921875 138.0625 222.578125 139.566406 C 220.28125 142.574219 216.550781 144.039062 212.996094 144.929688 C 208.09375 145.601562 202.5 144.4375 199.375 140.300781 C 197.988281 138.640625 196.558594 136.605469 197.425781 134.355469 C 197.554688 132.523438 199.246094 131.082031 200.546875 130.113281 C 200.722656 130.109375 200.851562 130.144531 201.199219 130.011719 C 201.414062 129.984375 201.328125 130.15625 201.71875 130.011719 C 201.980469 129.929688 202.066406 129.949219 202.109375 129.992188 C 202.195312 130.175781 202.890625 130.019531 203.238281 130.027344 C 203.453125 130.210938 203.410156 130.511719 203.800781 130.554688 C 204.277344 130.601562 204.363281 130.882812 204.667969 131.097656 C 204.753906 131.328125 205.1875 131.097656 205.277344 131.21875 C 205.277344 131.300781 205.363281 131.328125 205.535156 131.289062 C 205.535156 131.59375 205.972656 131.148438 206.359375 131.492188 C 206.445312 131.617188 206.707031 131.613281 206.878906 131.691406 C 207.617188 132 207.964844 132.699219 208.660156 133.015625 C 209.4375 133.632812 210.394531 133.585938 211.21875 133.867188 C 211.347656 134.09375 211.476562 133.785156 211.609375 133.859375 C 211.78125 133.949219 211.910156 133.738281 212.042969 133.695312 C 213.039062 133.542969 214.125 133.878906 215.121094 133.457031 C 216.03125 132.878906 217.117188 132.304688 217.765625 131.484375 C 217.765625 131.371094 217.855469 131.316406 218.15625 131.464844 C 218.71875 131.433594 219.066406 130.71875 219.757812 130.65625 Z M 150.667969 130.191406 C 150.714844 130.101562 150.886719 129.992188 151.058594 129.992188 C 151.40625 129.988281 151.625 129.492188 151.929688 129.539062 C 153.011719 129.734375 153.921875 130.199219 155.007812 130.417969 C 156.566406 130.628906 158 131.570312 158.824219 132.632812 C 160.039062 133.371094 161.339844 134.238281 162.726562 134.710938 C 163.03125 134.773438 163.378906 134.777344 163.679688 134.59375 C 163.679688 134.578125 163.722656 134.546875 163.722656 134.578125 C 163.898438 134.742188 164.070312 134.457031 164.246094 134.527344 C 165.804688 134.257812 166.714844 132.617188 168.0625 131.84375 C 169.230469 131.246094 169.839844 130.019531 171.3125 129.664062 C 172.789062 129.59375 174.046875 129.011719 175.5625 129.21875 C 176.34375 129.394531 177.125 129.628906 177.734375 129.648438 C 177.777344 129.800781 178.167969 130.011719 178.296875 130.238281 C 178.175781 130.429688 178.859375 130.648438 178.730469 130.890625 C 178.601562 131.128906 179.164062 131.644531 179.292969 131.996094 C 178.859375 132.914062 179.164062 133.765625 178.601562 134.71875 C 178.558594 134.882812 178.816406 135.203125 178.6875 135.328125 C 178.558594 135.429688 178.558594 135.570312 178.601562 135.761719 C 178.382812 135.90625 178.558594 136.292969 178.558594 136.617188 C 178.035156 138.257812 176.953125 139.613281 175.652344 140.773438 C 172.007812 144.429688 166.714844 146.390625 161.597656 145.628906 C 156.609375 144.496094 149.800781 138.148438 149.84375 133.117188 C 149.976562 132.667969 148.890625 132.554688 149.410156 132.164062 C 149.839844 131.871094 149.222656 131.386719 149.28125 131.070312 C 149.414062 130.570312 150.0625 129.746094 150.667969 130.191406 Z M 134.320312 139.988281 C 134.320312 140.15625 134.363281 140.328125 134.363281 140.484375 C 134.363281 140.433594 134.363281 140.347656 134.40625 140.257812 C 134.363281 140.171875 134.363281 140.082031 134.320312 139.988281 Z M 134.320312 139.988281 "/></g></g></svg>